<svg id="Layer_1" data-name="Layer 1" xmlns="http://www.w3.org/2000/svg" viewBox="0 0 107.67 164.96"><defs><style>.cls-1{fill:#dd2026;}</style></defs><title>dancers</title><path class="cls-1" d="M131.91,368.94c2.91-2.72,5.77-5.48,9.75-6.69,2.88-.88,2.94-2.8,1.5-5-2.51-3.92-2.43-8.09-1.36-12.41,1.42-5.73,4.55-8.69,9.77-8.91s6.78,4.06,8.6,7.73a28.49,28.49,0,0,1,1.41,4.78c4.19-4.43,4.49-9.59,1-13.9-.4-.49-1.31-1.25-.77-1.55,3.1-1.71,1.59-3.85.78-6-.32-.83-.36-1.66.62-2.09.75-.33,1.3.19,1.67.72a7.65,7.65,0,0,0,5.71,3.58c1.48.16,1.59,1.51,1.66,2.69.82,14.11,1.75,28.23-.73,42.27-1.18,6.65-1.76,13.31.16,19.79a68.15,68.15,0,0,1,2.05,31.58c-2,11.64.25,23.26.08,34.88-.11,7.65-.41,15.3-.83,22.94-.13,2.24-.54,5.16-3.28,5.48s-6,1.61-8.14-1.79c-1.41-2.24-3.13-3.76-6.18-2.29-2.71,1.31-3.94-.92-3.93-2.92,0-12.09-7.71-21.38-11.35-32.13a20,20,0,0,1-.6-9.82c1.74-11,3.6-22,5.36-33,1.36-8.54.27-16.91-1.74-25.23-.82-3.41-2.67-4.35-5.84-3.19-2.81,1-5.62,2.08-8.45,3-4.59,1.57-7,.13-6.63-4.68.51-6.52.18-13.44,5.62-18.57a15.4,15.4,0,0,0,2.08-3.29c.54-.61,1.19-1.43,2-1s.74,1.36.23,2.14v0c-1.91,2.72.4,3.19,2.11,4L130,366C129.23,369.2,129.33,369.36,131.91,368.94Z" transform="translate(-67.03 -324.77)"/><path class="cls-1" d="M111.94,393.09c-6.4-1.93-6.41-1.81-6.4,5,0,7.52,2.13,14,7.61,19.42,2.88,2.82,4.78,6.37,6.59,10,1.41,2.79,2.63,5.37-.93,7.64a3.31,3.31,0,0,0-1.33,4c2,5.88,0,11.51-1.1,17.19-1.4,7.47-4.18,14.86-.69,22.5.69,1.5.35,3-1.51,3.61a3,3,0,0,1-4-2c-1-2.69-1.95-5.73-.8-8.3,2.05-4.63,1.2-9.15.62-13.74-.53-4.17-.6-8.15,1-12.26,1.69-4.45-1.6-7.87-6.29-6.84a39.58,39.58,0,0,1-12.9,1c-3.58-.4-5.88,1-6.84,4.34C82.18,454.05,78.16,463,74.27,472c-1.84,4.27.58,8.87-.16,13.33-.38,2.24-.46,4.63-3.51,4.36-2.44-.21-4.29-1.58-3.3-4.36,3.3-9.33,3.94-19.13,5.32-28.8.65-4.57,2-8.74,5.06-12.28,1.13-1.31,2.27-3,1.4-4.53-4.62-8.2-.44-15.85,1.41-23.55a43.9,43.9,0,0,1,4.63-11c4.46-7.93,3.44-16,1.45-24.26-.34-1.4-1-3.12-2-3.89-5.2-3.71-7.69-10.47-14.39-12.5-1.4-.43-2.7-2.22-1.11-3.52s3.34-3.66,5.82-1.8c3.18,2.39,6.33,4.88,8.35,8.47C84,369,85,370.24,86.8,369.73c2-.56,2.23-2.31,2.15-4-.13-2.81-.86-5.58-.36-8.45A15.07,15.07,0,0,1,92,349.59c3.32-3.73,7.56-3.48,10.56.46a13.6,13.6,0,0,1,2.51,9.95c-.84,8.06,2.32,15.36,4,23,.92,4.25,4.21,5.12,7.63,6,1.87.47,2.56-.43,3.08-2.21.69-2.33,1.57-.26,2.35.17,1,1,2.08.66,3.12.23,2.2-.91,3.71-.21,4.72,1.86,0,3.27-1.51,4.77-4.85,4.53C120.72,393.21,116.3,394,111.94,393.09Z" transform="translate(-67.03 -324.77)"/></svg>