<?xml version="1.0" encoding="utf-8"?>
<!-- Generator: Adobe Illustrator 16.0.0, SVG Export Plug-In . SVG Version: 6.00 Build 0)  -->
<!DOCTYPE svg PUBLIC "-//W3C//DTD SVG 1.1//EN" "http://www.w3.org/Graphics/SVG/1.1/DTD/svg11.dtd">
<svg version="1.1" id="Layer_1_xA0_Image_1_" xmlns="http://www.w3.org/2000/svg" xmlns:xlink="http://www.w3.org/1999/xlink"
	 x="0px" y="0px" width="512px" height="512px" viewBox="0 0 512 512" enable-background="new 0 0 512 512" xml:space="preserve">
<g>
	<path display="none" fill="#FFFFFF" d="M-162.04-272.017c341.065,0,682.131,0,1023.278,0c0,351.241,0,702.506,0,1053.914
		c-341.038,0-682.158,0-1023.278,0C-162.04,430.645-162.04,79.326-162.04-272.017z M517.983,606.304
		c-1.278,0.587-2.574,1.151-3.843,1.77c-15.252,7.438-30.891,13.952-47.036,19.166c-33.805,10.916-68.412,17.46-103.979,18.592
		c-0.891,0.028-1.771,0.384-2.843,0.631c0,2.125,0,4.037,0,5.95c0,28.476,0,56.952,0,85.429c0,8.959-0.013,17.917,0.016,26.876
		c0.004,1.229,0.211,2.459,0.343,3.903c3.136,0,5.995,0.096,8.847-0.017c17.104-0.671,34.125-2.206,51.079-4.617
		c20.445-2.907,40.62-7.045,60.501-12.629c30.721-8.63,60.328-20.125,88.803-34.526c1.229-0.622,2.812-0.845,3.542-2.742
		c-18.044-35.395-36.188-70.985-54.347-106.567C518.86,607.117,518.449,606.818,517.983,606.304z M221.615-241.232
		c-0.914-0.117-1.247-0.249-1.534-0.182c-1.555,0.359-3.113,0.719-4.645,1.167c-52.336,15.296-100.831,38.598-145.51,69.847
		c-13.514,9.452-26.497,19.589-38.97,30.375c-1.284,1.11-2.925,1.971-3.458,3.88c0.844,1.017,1.646,2.009,2.476,2.976
		c6.774,7.888,13.553,15.773,20.332,23.657c17.73,20.62,35.459,41.242,53.205,61.848c0.799,0.928,1.761,1.714,2.663,2.58
		c6.395-5.062,12.441-10.041,18.695-14.745c6.261-4.709,12.621-9.306,19.137-13.654c6.515-4.346,13.183-8.483,19.956-12.416
		c6.633-3.851,13.403-7.489,20.263-10.922c7.001-3.504,14.104-6.834,21.31-9.892c7.206-3.058,14.539-5.839,21.918-8.454
		c7.34-2.602,14.807-4.847,22.593-7.369C240.541-162.246,231.142-201.688,221.615-241.232z M673.857-136.319
		c-1.092-1.107-1.802-1.955-2.638-2.652c-5.894-4.921-11.716-9.933-17.74-14.689c-37.276-29.429-77.968-52.981-122.03-70.705
		c-15.732-6.328-31.742-11.849-48.062-16.463c-1.188-0.336-2.382-1.002-3.894-0.098c-0.332,1.201-0.753,2.562-1.084,3.945
		c-8.849,36.997-17.689,73.997-26.528,110.997c-0.29,1.214-0.918,2.424,0.002,3.861c1.362,0.438,2.865,0.96,4.39,1.407
		c27.749,8.124,54.106,19.501,79.181,33.876c20.178,11.568,39.052,24.993,56.878,39.914c0.823,0.689,1.741,1.264,2.851,2.062
		C621.386-75.325,647.447-105.619,673.857-136.319z M-112.225,63.518c36.54,14.257,72.855,28.429,109.179,42.58
		c0.415,0.161,0.931,0.059,1.534,0.086c1.27-1.656,1.826-3.676,2.612-5.561c13.367-32.069,30.731-61.806,51.97-89.295
		c10.578-13.69,21.977-26.646,34.306-38.787c1.217-1.198,2.806-2.166,3.276-4.226c-0.964-1.167-1.957-2.41-2.994-3.615
		c-11.053-12.857-22.114-25.707-33.172-38.56c-13.146-15.278-26.281-30.564-39.455-45.817c-0.889-1.029-1.508-2.475-3.084-2.72
		c-19.803,17.43-54.729,56.295-81.033,98.78C-85.574,3.013-109.301,50.521-112.225,63.518z M726.568,312.574
		c-0.239,1.02-0.424,1.621-0.519,2.237c-3.651,23.745-9.253,47.021-16.945,69.781c-9.403,27.821-21.837,54.228-37.21,79.252
		c-0.975,1.587-2.242,3.058-2.656,4.85c3.343,3.047,93.859,67.388,97.639,69.404c0.789-1.146,1.634-2.289,2.393-3.486
		c8.566-13.51,16.433-27.422,23.658-41.688c13.022-25.711,23.844-52.329,32.536-79.812c8.355-26.417,14.338-53.374,18.37-80.772
		c0.249-1.69,0.714-3.438,0.05-5.266c-0.812-0.22-1.556-0.52-2.326-0.615c-37.582-4.69-75.167-9.364-112.753-14.021
		C728.193,312.361,727.555,312.507,726.568,312.574z M-54.484,555.528c27.213,38.691,58.899,72.745,95.173,102.573
		c20.613,16.952,59.145,43.136,69.181,46.713c17.995-35.057,35.82-70.254,53.784-105.379c0.423-0.827,0.729-1.714,1.206-2.849
		c-4.214-2.902-8.582-5.202-12.683-7.907c-4.271-2.816-8.58-5.577-12.796-8.474c-4.084-2.807-8.115-5.696-12.089-8.657
		c-3.975-2.962-7.898-5.996-11.754-9.11c-3.98-3.215-7.902-6.507-11.756-9.872c-3.732-3.259-7.407-6.59-10.993-10.009
		c-3.701-3.528-7.31-7.157-10.878-10.821c-3.457-3.55-6.873-7.145-10.191-10.823c-3.32-3.681-6.554-7.442-9.719-11.256
		c-3.268-3.938-6.42-7.971-9.598-11.981c-3.053-3.855-5.765-7.981-8.909-11.693C39.871,487.9-50.428,551.977-54.484,555.528z
		 M610.009-31.27c1.263,1.363,2.315,2.524,3.396,3.661c5.62,5.91,11.422,11.658,16.844,17.745
		c29.622,33.262,53.051,70.43,70.061,111.623c0.648,1.57,0.893,3.416,2.646,4.693c1.4-0.496,2.907-0.984,4.38-1.559
		c14.448-5.632,28.891-11.28,43.335-16.92c19.805-7.731,39.613-15.453,59.411-23.204c1.123-0.44,2.159-1.104,3.463-1.781
		C785.462-8.127,744.291-70,689.096-122.726c-0.836,0.751-1.484,1.219-1.992,1.808C661.458-91.111,635.824-61.294,610.009-31.27z
		 M657.754,485.979c-1.686,1.082-2.475,2.697-3.496,4.09c-15.072,20.561-31.906,39.539-50.712,56.768
		c-19.639,17.992-40.935,33.742-63.796,47.392c-1.195,0.714-2.671,1.124-3.409,2.827c0.251,0.568,0.532,1.301,0.886,1.994
		c11.827,23.206,23.658,46.408,35.493,69.61c5.735,11.244,11.469,22.49,17.237,33.718c0.479,0.93,1.219,1.726,1.823,2.563
		c0.86-0.417,1.456-0.66,2.008-0.979c17.863-10.347,35.097-21.646,51.548-34.125c23.749-18.016,45.749-37.961,66.023-59.809
		c15.245-16.428,29.372-33.768,42.322-52.062c0.613-0.867,1.025-1.877,1.657-3.055c-32.111-22.818-64.024-45.498-95.949-68.164
		C658.896,486.396,658.278,486.22,657.754,485.979z M-145.844,306.908c37.073-4.468,73.487-9.245,109.943-13.675
		c2.506-0.305,4.995-0.764,7.678-1.18c-0.429-9.476-1.042-18.682-1.209-27.896c-0.17-9.426-0.192-18.874,0.253-28.287
		c0.438-9.248,1.317-18.491,2.417-27.687c1.119-9.355,2.48-18.699,4.222-27.957c1.711-9.098,3.841-18.131,6.14-27.102
		c2.333-9.107,5.097-18.103,7.714-27.297c-0.52-0.333-1.005-0.767-1.574-0.989c-36.291-14.188-72.588-28.358-108.853-42.517
		c-4.514,8.664-18.238,53.248-24.344,99.146C-148.977,222.969-150.071,264.554-145.844,306.908z M183.434,606.412
		c-0.358,0.195-0.52,0.248-0.633,0.353c-0.231,0.214-0.503,0.422-0.641,0.692c-16.814,32.875-33.621,65.755-50.417,98.64
		c-1.308,2.561-2.542,5.158-3.803,7.742c-0.069,0.141-0.11,0.311-0.105,0.465c0.005,0.154,0.085,0.306,0.258,0.865
		c1.236,0.682,2.72,1.567,4.261,2.338c28.106,14.043,57.266,25.361,87.522,33.849c19.882,5.578,40.033,9.873,60.507,12.573
		c9.823,1.295,19.663,2.546,29.533,3.377c9.071,0.764,18.192,0.952,27.294,1.347c0.885,0.038,1.783-0.258,2.744-0.409
		c0.063-1.216,0.157-2.162,0.156-3.108c-0.043-39.349-0.094-78.696-0.149-118.045c-0.001-0.155-0.046-0.324-0.118-0.462
		c-0.072-0.135-0.207-0.237-0.624-0.694c-26.748-0.896-53.405-4.712-79.675-11.301C233.084,627.997,207.685,618.539,183.434,606.412
		z M729.181,292.195c38.644,4.858,76.837,9.661,115.031,14.456c0.47,0.059,0.954,0.018,1.432,0.011
		c0.157-0.003,0.329-0.017,0.469-0.081c0.137-0.063,0.24-0.197,0.357-0.3c3.305-20.28,4.706-73.818-1.546-120.849
		c-4.664-35.092-12.414-69.438-24.249-102.813c-4.497,1.07-107.129,41.176-110.888,43.302c2.937,10.726,5.948,21.455,8.8,32.226
		c2.863,10.818,5.002,21.795,6.825,32.835c1.849,11.202,3.232,22.464,4.032,33.782c0.79,11.155,1.489,22.334,1.193,33.522
		C730.343,269.428,729.695,280.561,729.181,292.195z M508.948,587.623c-18.442-36.08-36.643-71.961-54.928-107.622
		c-0.695,0.037-1.036-0.022-1.313,0.084c-0.893,0.345-1.77,0.734-2.64,1.134c-27.306,12.527-55.935,19.774-85.936,21.578
		c-1.218,0.074-2.417,0.438-3.849,0.71c0,2.209,0,4.116,0,6.024c0,36.446,0,72.894,0,109.34c0,1.279-0.06,2.562,0.028,3.836
		c0.063,0.904,0.329,1.794,0.493,2.628c14.854,0.917,53.597-3.614,81.605-11.394C464.875,607.702,500.105,593.981,508.948,587.623z
		 M302.906,11.313c6.595-1.025,12.872-2.171,19.196-2.934c6.338-0.765,12.713-1.37,19.09-1.636s12.784-0.234,19.162,0.049
		c6.376,0.283,12.74,0.955,19.094,1.611c6.312,0.652,12.506,2.215,18.976,2.902c0.425-1.309,0.834-2.329,1.088-3.385
		c8.875-36.962,17.741-73.926,26.582-110.896c0.358-1.498,0.897-3.021,0.573-4.844c-32.612-7.432-65.499-9.304-98.646-7.583
		c-17.339,0.901-49.373,5.392-53.78,8.142C275.62-99.195,301.392,7.65,302.906,11.313z M254.223-102.768
		c-23.549,6.693-45.999,15.78-67.537,27.137c-24.138,12.729-46.595,27.922-67.421,46.127c1.338,1.615,2.527,3.096,3.764,4.534
		c11.262,13.1,22.534,26.191,33.801,39.287c12.728,14.793,25.441,29.599,38.202,44.363c0.988,1.143,1.657,2.775,3.543,3.07
		c12.479-10.096,25.597-19.195,39.728-26.811c14.243-7.676,29.146-13.754,44.525-18.44c-0.298-3.702-24.967-108.56-27.591-117.395
		C255.065-101.475,254.655-101.986,254.223-102.768z M109.531,274.999c0-2.423,0.107-4.174-0.019-5.908
		c-0.625-8.618-0.814-17.236-0.152-25.859c0.49-6.374,0.786-12.772,1.563-19.111c1.871-15.259,5.207-30.225,9.604-44.955
		c0.262-0.878,0.396-1.794,0.656-3c-36.896-14.471-73.622-28.782-110.625-43.201c-0.647,1.613-1.273,2.875-1.667,4.205
		c-2.308,7.812-4.747,15.593-6.8,23.473c-6.472,24.839-9.867,50.155-11.17,75.756c-0.847,16.622-0.442,33.241,0.793,49.837
		c0.078,1.044,0.444,2.067,0.745,3.405C31.541,284.755,70.35,279.9,109.531,274.999z M-5.443,309.979
		c2.941,24.535,10.705,56.639,24.517,90.342c7.75,18.909,23.534,49.08,29.712,56.44c0.634-0.332,1.362-0.614,1.98-1.052
		c31.804-22.524,63.559-45.117,95.457-67.825c-0.57-1.103-0.991-1.936-1.428-2.761c-4.034-7.621-8.335-15.114-12.055-22.886
		c-9.297-19.42-15.381-39.898-19.39-61.021c-0.377-1.989-0.429-4.098-1.516-5.895c-1.271,0-2.392-0.119-3.482,0.018
		c-37.247,4.664-74.491,9.352-111.733,14.05C-3.983,309.465-4.563,309.722-5.443,309.979z M690.145,133.216
		c-1.718,0.623-3.502,1.228-5.256,1.913c-18.612,7.267-37.218,14.552-55.829,21.822c-14.89,5.816-29.792,11.602-44.669,17.45
		c-1.576,0.62-3.442,0.848-4.533,2.539c1.572,5.893,3.228,11.729,4.679,17.614c3.874,15.72,6.283,31.666,7.054,47.846
		c0.465,9.754,0.275,19.505-0.154,29.257c-0.047,1.055,0.189,2.122,0.308,3.315c38.323,4.836,76.381,9.638,114.439,14.432
		c0.473,0.06,0.958,0.032,1.437,0.029c0.153-0.002,0.314-0.035,0.455-0.094c0.145-0.061,0.271-0.168,0.404-0.256
		c3.24-13.296,2.203-61.49-1.931-89.799C703.102,175.689,694.492,140.842,690.145,133.216z M652.395,457.184
		c14.722-23.358,26.406-47.449,35.6-72.771c8.744-24.086,15.08-48.76,18.493-74.344c-1.981-0.902-3.876-1.036-5.759-1.265
		c-9.044-1.1-18.086-2.216-27.126-3.344c-11.577-1.445-23.152-2.909-34.729-4.361c-9.039-1.134-18.079-2.263-27.118-3.396
		c-6.186-0.775-12.366-1.584-18.558-2.307c-1.382-0.161-2.798-0.023-4.332-0.023c-0.369,1.548-0.766,2.916-1.015,4.31
		c-5.376,30.035-15.571,58.29-31.171,84.557c-0.635,1.069-1.142,2.214-1.855,3.61C587.267,410.931,619.541,433.891,652.395,457.184z
		 M191.992,587.981c1.578,0.878,2.643,1.571,3.787,2.09c7.711,3.492,15.344,7.182,23.179,10.373
		c25.256,10.287,51.336,17.617,78.367,21.525c12.508,1.809,25.059,3.018,37.674,3.604c1.557,0.072,3.163,0.345,4.402-0.237
		c0.323-0.398,0.496-0.513,0.508-0.642c0.087-0.952,0.199-1.907,0.199-2.862c-0.036-39.17-0.082-78.34-0.133-117.511
		c-0.001-0.152-0.073-0.313-0.146-0.454c-0.069-0.134-0.182-0.244-0.55-0.719c-1.088-0.112-2.485-0.25-3.882-0.4
		c-6.987-0.756-14.025-1.207-20.953-2.332c-22.187-3.604-43.624-9.785-64.013-19.385c-0.965-0.454-2-0.758-3.268-1.23
		C228.768,515.873,210.487,551.717,191.992,587.981z"/>
	<path fill-rule="evenodd" clip-rule="evenodd" d="M306.266,389.79c0.187,0.207,0.353,0.327,0.437,0.49
		c7.323,14.349,14.639,28.701,21.915,42.975c-0.294,0.766-0.933,0.855-1.428,1.106c-11.483,5.808-23.422,10.443-35.812,13.923
		c-8.018,2.252-16.153,3.92-24.397,5.092c-6.837,0.973-13.701,1.592-20.598,1.863c-1.15,0.045-2.304,0.006-3.568,0.006
		c-0.053-0.582-0.137-1.078-0.139-1.573c-0.011-3.613-0.006-7.226-0.006-10.838c0-11.483,0-22.967,0-34.45c0-0.772,0-1.543,0-2.4
		c0.433-0.1,0.788-0.242,1.146-0.254c14.344-0.456,28.299-3.096,41.931-7.497c6.511-2.104,12.817-4.73,18.968-7.729
		C305.227,390.254,305.75,390.025,306.266,389.79z"/>
	<path fill-rule="evenodd" clip-rule="evenodd" d="M186.75,48.01c3.842,15.947,7.632,31.852,11.465,47.866
		c-3.14,1.017-6.151,1.922-9.111,2.972c-2.976,1.055-5.933,2.176-8.839,3.409c-2.906,1.233-5.771,2.576-8.593,3.989
		c-2.767,1.384-5.497,2.852-8.171,4.404c-2.731,1.586-5.42,3.254-8.047,5.007c-2.628,1.753-5.192,3.606-7.717,5.506
		c-2.522,1.897-4.96,3.905-7.539,5.946c-0.364-0.349-0.751-0.667-1.074-1.041c-7.156-8.31-14.306-16.625-21.456-24.941
		c-2.734-3.179-5.467-6.359-8.199-9.54c-0.335-0.39-0.658-0.79-0.998-1.2c0.214-0.77,0.876-1.117,1.394-1.564
		c5.03-4.35,10.265-8.438,15.715-12.25c18.018-12.602,37.574-21.998,58.679-28.167c0.618-0.181,1.246-0.326,1.873-0.471
		C186.248,47.91,186.382,47.963,186.75,48.01z"/>
	<path fill-rule="evenodd" clip-rule="evenodd" d="M369.123,90.317c-10.65,12.38-21.16,24.597-31.728,36.88
		c-0.447-0.321-0.817-0.554-1.149-0.831c-7.188-6.017-14.8-11.431-22.937-16.096c-10.111-5.797-20.74-10.385-31.931-13.661
		c-0.614-0.18-1.22-0.391-1.771-0.567c-0.371-0.58-0.117-1.068,0-1.557c3.564-14.92,7.13-29.841,10.698-44.761
		c0.133-0.558,0.303-1.106,0.437-1.591c0.61-0.365,1.092-0.096,1.57,0.039c6.581,1.861,13.037,4.087,19.381,6.639
		c17.77,7.147,34.179,16.645,49.211,28.513c2.429,1.918,4.777,3.939,7.154,5.924C368.396,89.529,368.683,89.871,369.123,90.317z"/>
	<path fill-rule="evenodd" clip-rule="evenodd" d="M52.125,170.904c1.179-5.241,10.748-24.399,17.396-35.138
		c10.607-17.132,24.691-32.805,32.677-39.834c0.636,0.099,0.886,0.682,1.244,1.098c5.312,6.15,10.609,12.314,15.911,18.476
		c4.459,5.183,8.92,10.365,13.377,15.55c0.417,0.486,0.818,0.987,1.207,1.458c-0.19,0.831-0.831,1.221-1.321,1.704
		c-4.972,4.896-9.569,10.121-13.834,15.641c-8.565,11.085-15.567,23.077-20.958,36.009c-0.317,0.76-0.541,1.575-1.054,2.243
		c-0.243-0.011-0.451,0.03-0.619-0.035C81.505,182.368,66.86,176.654,52.125,170.904z"/>
	<path fill-rule="evenodd" clip-rule="evenodd" d="M390.379,271.34c0.398-0.027,0.656-0.087,0.902-0.056
		c15.156,1.878,30.313,3.763,45.469,5.655c0.311,0.037,0.611,0.158,0.938,0.247c0.269,0.737,0.081,1.442-0.02,2.123
		c-1.626,11.05-4.039,21.92-7.408,32.573c-3.505,11.082-7.869,21.816-13.12,32.185c-2.914,5.754-6.087,11.363-9.541,16.812
		c-0.306,0.483-0.646,0.944-0.964,1.406c-1.524-0.813-38.027-26.76-39.375-27.988c0.167-0.723,0.679-1.315,1.071-1.956
		c6.199-10.091,11.214-20.74,15.006-31.96c3.102-9.178,5.36-18.564,6.833-28.14C390.208,271.992,390.283,271.75,390.379,271.34z"/>
	<path fill-rule="evenodd" clip-rule="evenodd" d="M75.41,369.313c1.636-1.432,38.05-27.272,39.511-28.045
		c1.268,1.497,2.361,3.16,3.592,4.716c1.281,1.617,2.553,3.243,3.871,4.831c1.276,1.538,2.581,3.055,3.919,4.539
		s2.716,2.934,4.11,4.365c1.438,1.477,2.894,2.94,4.387,4.363c1.446,1.379,2.928,2.722,4.433,4.036
		c1.554,1.356,3.136,2.686,4.741,3.98c1.555,1.256,3.137,2.479,4.74,3.675c1.602,1.194,3.228,2.359,4.875,3.49
		c1.701,1.168,3.438,2.282,5.161,3.418c1.654,1.09,3.415,2.018,5.114,3.188c-0.192,0.457-0.315,0.814-0.486,1.148
		c-7.244,14.165-14.432,28.358-21.688,42.496c-4.047-1.443-19.586-12.002-27.898-18.838
		C99.162,398.649,86.384,384.916,75.41,369.313z"/>
	<path fill-rule="evenodd" clip-rule="evenodd" d="M343.375,132.68c10.41-12.107,20.748-24.131,31.09-36.151
		c0.205-0.237,0.466-0.426,0.803-0.729c22.259,21.263,38.861,46.214,50.185,74.892c-0.525,0.273-0.942,0.541-1.396,0.718
		c-7.984,3.126-15.973,6.24-23.959,9.358c-5.824,2.274-11.648,4.552-17.475,6.823c-0.595,0.231-1.202,0.428-1.767,0.628
		c-0.707-0.516-0.806-1.26-1.066-1.893c-6.859-16.611-16.308-31.6-28.253-45.013c-2.188-2.455-4.526-4.773-6.793-7.156
		C344.309,133.698,343.885,133.229,343.375,132.68z"/>
	<path fill-rule="evenodd" clip-rule="evenodd" d="M362.629,341.267c0.212,0.098,0.461,0.169,0.66,0.311
		c12.873,9.14,25.742,18.286,38.692,27.487c-0.255,0.476-0.421,0.882-0.669,1.231c-5.222,7.378-10.918,14.37-17.066,20.995
		c-8.176,8.811-17.048,16.854-26.625,24.119c-6.634,5.031-13.583,9.588-20.788,13.761c-0.222,0.129-0.462,0.227-0.809,0.396
		c-0.244-0.338-0.543-0.66-0.735-1.034c-2.326-4.527-4.639-9.063-6.952-13.598c-4.771-9.356-9.543-18.713-14.312-28.07
		c-0.144-0.279-0.257-0.575-0.357-0.805c0.297-0.687,0.893-0.852,1.375-1.141c9.218-5.504,17.807-11.855,25.726-19.11
		c7.584-6.947,14.373-14.602,20.451-22.893C361.631,342.354,361.949,341.702,362.629,341.267z"/>
	<path fill-rule="evenodd" clip-rule="evenodd" d="M38.568,269.055c-1.705-17.08-1.263-33.85,0.963-50.585
		c2.462-18.509,7.997-36.488,9.817-39.982c14.625,5.71,29.262,11.424,43.896,17.146c0.229,0.09,0.425,0.265,0.635,0.399
		c-1.056,3.708-2.17,7.335-3.111,11.008c-0.927,3.618-1.786,7.261-2.476,10.929c-0.702,3.733-1.251,7.502-1.702,11.274
		c-0.444,3.709-0.799,7.436-0.975,11.166c-0.179,3.796-0.171,7.606-0.102,11.407c0.067,3.716,0.314,7.429,0.487,11.25
		c-1.082,0.168-2.085,0.354-3.096,0.476C68.203,265.326,53.518,267.253,38.568,269.055z"/>
	<path fill-rule="evenodd" clip-rule="evenodd" d="M171.354,389.833c9.78,4.891,20.022,8.704,30.692,11.381
		c10.593,2.656,21.343,4.195,32.13,4.557c0.168,0.185,0.222,0.226,0.251,0.28c0.03,0.055,0.048,0.123,0.048,0.186
		c0.022,15.868,0.042,31.735,0.06,47.604c0,0.382-0.038,0.763-0.063,1.254c-0.388,0.061-0.75,0.181-1.107,0.165
		c-3.67-0.159-7.349-0.235-11.007-0.543c-3.98-0.336-7.948-0.84-11.91-1.362c-8.256-1.089-16.382-2.82-24.4-5.07
		c-12.201-3.422-23.96-7.986-35.294-13.649c-0.622-0.311-1.22-0.668-1.718-0.943c-0.07-0.226-0.102-0.286-0.104-0.349
		c-0.001-0.062,0.015-0.131,0.043-0.188c0.509-1.041,1.006-2.089,1.534-3.121c6.773-13.262,13.55-26.521,20.331-39.778
		c0.056-0.108,0.166-0.192,0.259-0.278C171.144,389.934,171.209,389.912,171.354,389.833z"/>
	<path fill-rule="evenodd" clip-rule="evenodd" d="M391.433,263.121c0.207-4.691,0.469-9.182,0.588-13.674
		c0.119-4.512-0.163-9.021-0.481-13.519c-0.322-4.564-0.881-9.106-1.626-13.623c-0.735-4.452-1.598-8.878-2.753-13.241
		c-1.149-4.344-2.364-8.67-3.548-12.995c1.516-0.857,42.903-17.031,44.717-17.462c4.772,13.458,7.897,27.309,9.778,41.46
		c2.521,18.966,1.957,40.555,0.624,48.734c-0.048,0.041-0.09,0.095-0.145,0.121c-0.057,0.026-0.125,0.031-0.189,0.032
		c-0.192,0.003-0.388,0.02-0.577-0.004C422.418,267.017,407.017,265.08,391.433,263.121z"/>
	<path fill-rule="evenodd" clip-rule="evenodd" d="M302.621,382.257c-3.565,2.563-17.773,8.097-26.832,10.612
		c-11.295,3.138-26.92,4.965-32.909,4.595c-0.066-0.336-0.173-0.694-0.199-1.06c-0.035-0.515-0.012-1.031-0.012-1.547
		c0-14.698,0-29.396,0-44.093c0-0.77,0-1.538,0-2.43c0.578-0.109,1.061-0.256,1.552-0.286c12.099-0.728,23.645-3.649,34.655-8.701
		c0.351-0.162,0.704-0.318,1.064-0.458c0.111-0.042,0.249-0.019,0.529-0.033C287.845,353.237,295.185,367.707,302.621,382.257z"/>
	<path fill-rule="evenodd" clip-rule="evenodd" d="M219.532,149.852c-0.611-1.477-11.003-44.564-11.56-47.816
		c1.777-1.109,14.696-2.92,21.687-3.283c13.368-0.695,26.63,0.061,39.781,3.058c0.13,0.735-0.087,1.35-0.231,1.954
		c-3.564,14.908-7.141,29.815-10.72,44.72c-0.103,0.426-0.268,0.837-0.438,1.365c-2.609-0.277-5.105-0.907-7.652-1.17
		c-2.562-0.265-5.128-0.536-7.699-0.65c-2.572-0.114-5.156-0.127-7.728-0.02c-2.572,0.108-5.143,0.351-7.698,0.66
		C224.723,148.977,222.191,149.438,219.532,149.852z"/>
	<path fill-rule="evenodd" clip-rule="evenodd" d="M199.9,103.848c0.174,0.315,0.34,0.521,0.41,0.755
		c1.058,3.563,11.006,45.848,11.126,47.341c-6.202,1.89-12.212,4.341-17.956,7.436c-5.698,3.071-10.988,6.74-16.021,10.812
		c-0.761-0.119-1.03-0.777-1.429-1.238c-5.146-5.954-10.273-11.925-15.405-17.89c-4.543-5.281-9.089-10.56-13.631-15.843
		c-0.499-0.58-0.978-1.177-1.518-1.828c8.398-7.342,17.454-13.469,27.188-18.602C181.351,110.211,190.404,106.547,199.9,103.848z"/>
	<path fill-rule="evenodd" clip-rule="evenodd" d="M141.551,256.187c-15.8,1.978-31.451,3.935-47.21,5.905
		c-0.121-0.539-0.269-0.951-0.3-1.373c-0.498-6.693-0.661-13.395-0.32-20.098c0.526-10.324,1.895-20.533,4.505-30.55
		c0.828-3.178,1.811-6.315,2.742-9.466c0.159-0.536,0.411-1.045,0.672-1.695c14.922,5.814,29.732,11.585,44.611,17.421
		c-0.105,0.486-0.159,0.856-0.265,1.209c-1.773,5.94-3.119,11.975-3.873,18.129c-0.313,2.556-0.433,5.136-0.63,7.707
		c-0.267,3.478-0.19,6.952,0.062,10.429C141.595,254.504,141.551,255.209,141.551,256.187z"/>
	<path fill-rule="evenodd" clip-rule="evenodd" d="M95.187,270.293c0.355-0.104,0.589-0.208,0.832-0.238
		c15.019-1.895,30.038-3.785,45.058-5.666c0.44-0.055,0.892-0.007,1.405-0.007c0.438,0.724,0.459,1.575,0.611,2.377
		c1.617,8.519,4.07,16.776,7.819,24.607c1.5,3.134,3.234,6.155,4.861,9.229c0.176,0.332,0.346,0.669,0.576,1.113
		c-12.863,9.157-25.668,18.268-38.494,27.352c-0.25,0.176-0.543,0.29-0.799,0.424c-2.491-2.969-8.856-15.135-11.981-22.76
		C99.503,293.133,96.373,280.187,95.187,270.293z"/>
	<path fill-rule="evenodd" clip-rule="evenodd" d="M375.691,199.011c1.753,3.075,5.225,17.128,6.614,26.643
		c1.667,11.416,2.086,30.85,0.778,36.212c-0.054,0.035-0.104,0.079-0.163,0.104c-0.057,0.022-0.121,0.037-0.184,0.037
		c-0.192,0.001-0.388,0.013-0.579-0.012c-15.348-1.933-30.694-3.869-46.148-5.819c-0.048-0.481-0.144-0.912-0.124-1.337
		c0.173-3.933,0.249-7.865,0.062-11.799c-0.312-6.524-1.283-12.955-2.845-19.294c-0.586-2.373-1.254-4.727-1.888-7.103
		c0.439-0.682,1.193-0.774,1.829-1.023c5.999-2.359,12.008-4.692,18.013-7.037c7.505-2.932,15.008-5.869,22.514-8.8
		C374.279,199.506,374.998,199.262,375.691,199.011z"/>
	<path fill-rule="evenodd" clip-rule="evenodd" d="M360.468,329.655c-13.248-9.394-26.264-18.652-39.347-27.96
		c0.288-0.564,0.492-1.025,0.748-1.456c6.291-10.593,10.402-21.987,12.57-34.099c0.101-0.562,0.26-1.113,0.409-1.738
		c0.619,0,1.189-0.055,1.747,0.01c2.496,0.291,4.989,0.617,7.483,0.93c3.646,0.457,7.29,0.912,10.937,1.369
		c4.668,0.586,9.336,1.177,14.005,1.76c3.646,0.455,7.291,0.904,10.938,1.349c0.759,0.092,1.523,0.146,2.322,0.51
		c-1.376,10.316-3.932,20.267-7.458,29.979C371.117,310.521,366.404,320.235,360.468,329.655z"/>
	<path fill-rule="evenodd" clip-rule="evenodd" d="M174.805,382.401c7.458-14.625,14.831-29.079,22.249-43.625
		c0.511,0.189,0.929,0.312,1.318,0.495c8.222,3.871,16.867,6.364,25.814,7.817c2.793,0.453,5.632,0.635,8.449,0.94
		c0.563,0.061,1.127,0.116,1.565,0.161c0.149,0.191,0.194,0.235,0.222,0.29c0.029,0.057,0.058,0.121,0.059,0.184
		c0.02,15.796,0.039,31.592,0.053,47.388c0,0.385-0.045,0.77-0.08,1.154c-0.004,0.051-0.075,0.098-0.204,0.258
		c-0.5,0.235-1.148,0.126-1.776,0.097c-5.087-0.236-10.148-0.725-15.193-1.454c-10.9-1.575-21.417-4.532-31.602-8.68
		c-3.16-1.287-6.238-2.774-9.347-4.184C175.871,383.034,175.441,382.755,174.805,382.401z"/>
</g>
</svg>
