<?xml version="1.0" encoding="utf-8"?>
<!-- Generator: Adobe Illustrator 20.1.0, SVG Export Plug-In . SVG Version: 6.00 Build 0)  -->
<svg version="1.1" id="Layer_1" xmlns="http://www.w3.org/2000/svg" xmlns:xlink="http://www.w3.org/1999/xlink" x="0px" y="0px"
	 viewBox="0 0 516.8 94.8" style="enable-background:new 0 0 516.8 94.8;" xml:space="preserve">
<style type="text/css">
	.st0{fill:#1d408a;}
</style>
<title>AdobeStock_25458477 [Converted]</title>
<g id="big_wheel">
	<circle class="st0" cx="334.7" cy="46.6" r="2.2"/>
	<path class="st0" d="M334.6,81.4c-19.8,0-35.9-16.1-35.9-35.9c0-19.8,16.1-35.9,35.9-35.9c19.8,0,35.9,16.1,35.9,35.9l0,0
		C370.5,65.4,354.4,81.4,334.6,81.4z M334.6,10.5c-19.3,0-35,15.7-35,35s15.7,35,35,35s35-15.7,35-35l0,0
		C369.6,26.2,353.9,10.6,334.6,10.5z"/>
	<path class="st0" d="M334.6,77.1c-17.4,0-31.6-14.1-31.6-31.6s14.1-31.6,31.6-31.6c17.4,0,31.6,14.1,31.6,31.6l0,0
		C366.2,62.9,352.1,77.1,334.6,77.1z M334.6,14.4c-17.2,0-31.1,13.9-31.1,31.1s13.9,31.1,31.1,31.1s31.1-13.9,31.1-31.1
		C365.7,28.3,351.8,14.4,334.6,14.4z"/>
	<polygon class="st0" points="346.5,94.1 334.8,51.4 325.3,94 323,93.5 333.6,46.4 335.8,46.3 348.7,93.4 346.5,94.1 	"/>
	<polygon class="st0" points="334.9,45.7 334.7,45.7 334.7,14.5 334.9,14.5 334.9,45.7 	"/>
	<polygon class="st0" points="334.7,45.7 329.3,15 329.5,14.9 334.9,45.7 334.7,45.7 	"/>
	<polygon class="st0" points="334.7,45.7 324,16.4 324.2,16.3 334.9,45.6 334.7,45.7 	"/>
	<polygon class="st0" points="334.7,45.7 319.1,18.7 319.3,18.6 334.9,45.6 334.7,45.7 	"/>
	<polygon class="st0" points="334.7,45.7 314.6,21.8 314.8,21.7 334.9,45.6 334.7,45.7 	"/>
	<polygon class="st0" points="334.7,45.7 310.8,25.6 310.9,25.5 334.8,45.5 334.7,45.7 	"/>
	<polygon class="st0" points="334.7,45.7 307.7,30.1 307.8,29.9 334.8,45.5 334.7,45.7 	"/>
	<polygon class="st0" points="334.7,45.7 305.4,35 305.4,34.8 334.8,45.5 334.7,45.7 	"/>
	<polygon class="st0" points="334.7,45.7 304,40.3 304,40.1 334.7,45.5 334.7,45.7 	"/>
	<polygon class="st0" points="334.7,45.7 303.5,45.7 303.5,45.5 334.7,45.5 334.7,45.7 	"/>
	<polygon class="st0" points="304,51.1 303.9,50.9 334.7,45.5 334.7,45.7 304,51.1 	"/>
	<polygon class="st0" points="305.4,56.4 305.3,56.2 334.6,45.5 334.7,45.7 305.4,56.4 	"/>
	<polygon class="st0" points="307.7,61.3 307.6,61.1 334.6,45.5 334.7,45.7 307.7,61.3 	"/>
	<polygon class="st0" points="310.8,65.8 310.6,65.6 334.6,45.5 334.7,45.7 310.8,65.8 	"/>
	<polygon class="st0" points="314.6,69.6 314.5,69.5 334.5,45.5 334.7,45.7 314.6,69.6 	"/>
	<polygon class="st0" points="319.1,72.7 318.9,72.6 334.5,45.6 334.7,45.7 319.1,72.7 	"/>
	<polygon class="st0" points="324,75 323.8,74.9 334.5,45.6 334.7,45.7 324,75 	"/>
	<polygon class="st0" points="329.3,76.4 329.1,76.4 334.5,45.6 334.7,45.7 329.3,76.4 	"/>
	<polygon class="st0" points="334.7,76.9 334.5,76.9 334.5,45.7 334.7,45.7 334.7,76.9 	"/>
	<polygon class="st0" points="339.9,76.4 334.5,45.7 334.7,45.7 340.1,76.4 339.9,76.4 	"/>
	<polygon class="st0" points="345.1,75.1 334.5,45.8 334.7,45.7 345.4,75 345.1,75.1 	"/>
	<polygon class="st0" points="350.1,72.8 334.5,45.8 334.7,45.7 350.3,72.7 350.1,72.8 	"/>
	<polygon class="st0" points="354.6,69.7 334.5,45.8 334.7,45.7 354.7,69.6 354.6,69.7 	"/>
	<polygon class="st0" points="358.4,65.9 334.5,45.8 334.7,45.7 358.6,65.8 358.4,65.9 	"/>
	<polygon class="st0" points="361.6,61.5 334.6,45.9 334.7,45.7 361.7,61.3 361.6,61.5 	"/>
	<polygon class="st0" points="363.9,56.6 334.6,45.9 334.7,45.7 364,56.4 363.9,56.6 	"/>
	<polygon class="st0" points="365.4,51.3 334.6,45.9 334.7,45.7 365.4,51.1 365.4,51.3 	"/>
	<polygon class="st0" points="365.9,45.9 334.7,45.9 334.7,45.7 365.9,45.7 365.9,45.9 	"/>
	<polygon class="st0" points="334.7,45.9 334.7,45.7 365.4,40.3 365.4,40.5 334.7,45.9 	"/>
	<polygon class="st0" points="334.7,45.9 334.7,45.7 364,35 364.1,35.2 334.7,45.9 	"/>
	<polygon class="st0" points="334.8,45.9 334.7,45.7 361.7,30.1 361.8,30.3 334.8,45.9 	"/>
	<polygon class="st0" points="334.8,45.9 334.7,45.7 358.6,25.6 358.7,25.8 334.8,45.9 	"/>
	<polygon class="st0" points="334.8,45.8 334.7,45.7 354.7,21.8 354.9,21.9 334.8,45.8 	"/>
	<polygon class="st0" points="334.9,45.8 334.7,45.7 350.3,18.7 350.5,18.8 334.9,45.8 	"/>
	<polygon class="st0" points="334.9,45.8 334.7,45.7 345.4,16.4 345.5,16.5 334.9,45.8 	"/>
	<polygon class="st0" points="334.9,45.8 334.7,45.7 340.1,15 340.3,15 334.9,45.8 	"/>
	<circle class="st0" cx="301" cy="29.6" r="1.5"/>
	<ellipse transform="matrix(0.9659 -0.2588 0.2588 0.9659 0.1116 78.4658)" class="st0" cx="298.1" cy="38.8" rx="1.5" ry="1.5"/>
	<ellipse transform="matrix(0.866 -0.5 0.5 0.866 15.5878 155.2851)" class="st0" cx="297.6" cy="48.6" rx="1.5" ry="1.5"/>
	<ellipse transform="matrix(0.707 -0.7072 0.7072 0.707 46.7784 228.9016)" class="st0" cx="299.6" cy="58" rx="1.5" ry="1.5"/>
	<ellipse transform="matrix(0.5003 -0.8659 0.8659 0.5003 94.1945 296.6199)" class="st0" cx="304.1" cy="66.7" rx="1.5" ry="1.5"/>
	
		<ellipse transform="matrix(0.2589 -0.9659 0.9659 0.2589 161.2189 356.2985)" class="st0" cx="312.8" cy="73.1" rx="1.6" ry="1.6"/>
	<circle class="st0" cx="318.8" cy="79.1" r="1.5"/>
	<ellipse transform="matrix(0.9659 -0.259 0.259 0.9659 -10.0661 87.7608)" class="st0" cx="328" cy="82.1" rx="1.5" ry="1.5"/>
	<ellipse transform="matrix(0.8661 -0.4998 0.4998 0.8661 3.9216 179.8729)" class="st0" cx="337.7" cy="82.6" rx="1.5" ry="1.5"/>
	<ellipse transform="matrix(0.7071 -0.7071 0.7071 0.7071 44.7461 269.1101)" class="st0" cx="347.2" cy="80.5" rx="1.5" ry="1.5"/>
	
		<ellipse transform="matrix(0.5002 -0.8659 0.8659 0.5002 111.9939 346.1981)" class="st0" cx="355.9" cy="76.1" rx="1.5" ry="1.5"/>
	
		<ellipse transform="matrix(0.2588 -0.9659 0.9659 0.2588 201.9233 402.2365)" class="st0" cx="363.1" cy="69.5" rx="1.5" ry="1.5"/>
	<circle class="st0" cx="368.3" cy="61.4" r="1.5"/>
	<ellipse transform="matrix(0.9658 -0.2592 0.2592 0.9658 -0.8162 98.0123)" class="st0" cx="371.3" cy="52.1" rx="1.5" ry="1.5"/>
	<ellipse transform="matrix(0.8661 -0.4998 0.4998 0.8661 28.5618 191.5177)" class="st0" cx="371.8" cy="42.4" rx="1.5" ry="1.5"/>
	<ellipse transform="matrix(0.7071 -0.7071 0.7071 0.7071 85.0008 271.077)" class="st0" cx="369.7" cy="32.9" rx="1.5" ry="1.5"/>
	<ellipse transform="matrix(0.4997 -0.8662 0.8662 0.4997 161.7025 328.579)" class="st0" cx="365.3" cy="24.3" rx="1.5" ry="1.5"/>
	<ellipse transform="matrix(0.2587 -0.966 0.966 0.2587 249.4456 359.2541)" class="st0" cx="358.8" cy="17.1" rx="1.5" ry="1.5"/>
	<circle class="st0" cx="350.6" cy="11.8" r="1.5"/>
	<ellipse transform="matrix(0.9659 -0.2588 0.2588 0.9659 9.3301 88.6416)" class="st0" cx="341.3" cy="8.9" rx="1.5" ry="1.5"/>
	<ellipse transform="matrix(0.8659 -0.5002 0.5002 0.8659 40.2708 166.9858)" class="st0" cx="331.6" cy="8.4" rx="1.5" ry="1.5"/>
	<ellipse transform="matrix(0.707 -0.7072 0.7072 0.707 87.037 230.8602)" class="st0" cx="322.1" cy="10.4" rx="1.5" ry="1.5"/>
	
		<ellipse transform="matrix(0.4998 -0.8661 0.8661 0.4998 143.9159 278.9405)" class="st0" cx="313.5" cy="14.9" rx="1.5" ry="1.5"/>
	
		<ellipse transform="matrix(0.2588 -0.9659 0.9659 0.2588 206.3212 311.7284)" class="st0" cx="306.3" cy="21.4" rx="1.5" ry="1.5"/>
	<circle class="st0" cx="301" cy="29.6" r="1.5"/>
</g>
<g id="Buildings_join">
	<rect x="383.1" y="71.7" class="st0" width="49" height="22.5"/>
	<rect x="285" y="89.6" class="st0" width="102.7" height="4.6"/>
	<polygon class="st0" points="369.2,76.8 369.2,86.7 357.9,86.7 357.9,89.5 314.2,89.5 314.2,82.1 312.3,82.1 312.3,80.2 
		294.5,80.2 294.5,82.1 292.9,82.1 292.9,74.2 253.8,74.2 253.8,85.5 1.9,85.5 1.9,94.8 27.5,94.8 295.7,94.8 516.8,94.8 
		516.8,76.9 	"/>
</g>
<g id="canary_wharf_and_dome">
	<polygon class="st0" points="141.8,33.5 140.8,33.5 140.8,32.1 140.7,32.1 133.7,24.6 126.1,32.2 126.3,32.2 126.3,33.5 
		125.3,33.5 125.3,37.6 124.1,37.6 124.1,53.5 114.2,53.5 114.2,69.8 113.5,69.8 113.5,66.2 112.4,66.2 112.4,59.7 110.1,59.7 
		110.1,45.1 109.3,45.1 109.3,38.8 108.6,38.8 108.6,33.5 89,33.5 89,38.8 88.1,38.8 88.1,45.1 86.9,45.1 86.9,69.3 73.2,69.3 
		73.2,93.7 143.3,93.7 143.3,37.6 141.8,37.6 	"/>
	<rect x="144.7" y="42.8" class="st0" width="16.4" height="51.9"/>
	<path class="st0" d="M2,86.3h105.6c0,0-2-3.9-11.5-7.4c4.3-8.2,10.2-19.6,10.4-19.8s0.2-0.4,0.1-0.6c0-0.1-0.1-0.1-0.2-0.1
		c-0.2,0-0.4,0.2-0.5,0.4c-0.2,0.4-8.8,13.5-12.6,19.3l-1.2-0.4c1.2-6,2.6-12.9,2.6-13.1s0.1-0.4,0-0.5c0,0-0.1,0-0.2,0
		c-0.1,0-0.2,0.2-0.2,0.4s-2.3,7.6-3.8,12.8c-1.5-0.4-3.2-0.8-5-1.2c1.4-7.9,3.1-18.2,3.2-18.5s0.1-0.5,0-0.6c-0.1,0-0.1,0-0.2,0
		c-0.2,0-0.2,0.3-0.3,0.5c-0.1,0.4-3.3,12-5,18.2l-1.7-0.3c1.2-6.3,2.8-14.2,2.9-14.5s0.1-0.4,0-0.5c-0.1,0-0.1,0-0.2,0
		c-0.1,0-0.2,0.2-0.2,0.4c-0.1,0.3-2.8,9.2-4.3,14.3c-3.9-0.6-8.2-1-13.2-1.3c0.3-7.9,0.6-18.1,0.7-18.4s0-0.5-0.1-0.5
		c-0.1,0-0.1,0-0.2,0c-0.2,0.1-0.2,0.3-0.2,0.5c0,0.4-1.6,12-2.4,18.4H64c0.7-6,1.5-12.6,1.5-12.8s0-0.4-0.1-0.5c0,0-0.1,0-0.2,0
		c-0.1,0-0.2,0.2-0.2,0.4s-1.6,7.6-2.8,12.9c-2.7-0.1-5.5-0.1-8.5-0.1c-3.7,0-7.1,0.1-10.2,0.2c-1.1-6.9-2.9-18.4-2.9-18.8
		s-0.1-0.5-0.3-0.5c-0.1,0-0.2,0-0.3,0C40,54.5,40,54.7,40,54.9c0,0.3,0.4,10.5,0.8,18.9c-5,0.3-9.3,0.8-13.1,1.4
		c-1.6-5.1-4.4-13.6-4.4-13.9c0-0.1-0.1-0.3-0.2-0.4c0,0-0.1,0-0.2,0c-0.1,0.1-0.1,0.2,0,0.5s1.7,7.8,3,14.1l-1.7,0.3
		c-2-6.2-5.5-17.2-5.6-17.6c0-0.2-0.1-0.4-0.3-0.5c-0.1,0-0.1,0-0.2,0.1c-0.1,0.1-0.1,0.3,0,0.6s2.1,10,3.8,17.8
		c-2.1,0.5-3.9,0.9-5.6,1.4c-1.4-4.5-5-15.5-5-15.9c0-0.1-0.1-0.3-0.2-0.4c0,0-0.1,0-0.2,0c-0.1,0.1-0.1,0.2,0,0.5s2.2,9.9,3.5,16.3
		c-0.9,0.3-1.7,0.6-2.5,0.9c-3.1-5.2-11-18.4-11.2-18.9c-0.1-0.2-0.2-0.4-0.4-0.4c-0.1,0-0.2,0-0.2,0.1c-0.1,0.1,0,0.3,0.1,0.6
		s5.6,11.8,9.3,19.6C3.1,83.3,2,86.3,2,86.3z M63.8,73.1L63.3,73v-0.1l0.5,0.1L63.8,73.1z M63.8,72.9l-0.5-0.1l0.1-0.5l0.5,0.1
		L63.8,72.9z M63.4,72.2v-0.1l0.5,0v0.1L63.4,72.2z M63.4,72l0.1-0.5l0.4,0.1l0,0l-0.1,0.5L63.4,72z M63.9,71.4l-0.4-0.1v-0.1
		l0.4,0.1v-0.1l-0.4-0.1l0.1-0.5l0.4,0.1L63.9,71.4z M63.6,70.5v-0.1l0.4,0.1v0.1L63.6,70.5z M63.6,70.3l0.1-0.5l0.3,0.1L64,70.3
		L63.6,70.3z M63.7,69.7v-0.1l0.3,0.1v0.2L63.7,69.7z M63.7,69.5l0.1-0.5l0.3,0.1L64,69.6L63.7,69.5z M63.8,68.9v-0.1l0.3,0.1V69
		L63.8,68.9z M63.8,68.7l0.1-0.4l0.3,0.1v0.4L63.8,68.7z M63.9,68.2V68l0.3,0.1v0.2L63.9,68.2z M63.9,67.9l0.1-0.5l0.2,0L64.1,68
		L63.9,67.9z M64,67.4v-0.2l0.2,0v0.2L64,67.4z M64,67.1l0.1-0.5h0.2l-0.1,0.5L64,67.1z M64.1,66.6v-0.2h0.2v0.2H64.1z M64.1,66.3
		l0.1-0.5h0.2l-0.1,0.5L64.1,66.3z M64.1,65.8v-0.2h0.2v0.2L64.1,65.8z M64.1,65.5l0.1-0.6h0.1l-0.1,0.6H64.1z M64.3,64.9v-0.2h0.1
		v0.2H64.3z M64.3,64.6l0.4-2.5c-0.1,0.7-0.2,1.6-0.3,2.6L64.3,64.6z M64.1,64.6H64l0.5-2.4L64.1,64.6z M64.1,64.7v0.2H64v-0.2H64.1
		z M64.1,64.9l-0.1,0.6h-0.2L64,65L64.1,64.9z M64,65.6v0.2h-0.2v-0.2H64z M64,65.8L64,66.3h-0.2l0.1-0.5L64,65.8z M63.9,66.4v0.2
		h-0.2v-0.2H63.9z M63.9,66.7l-0.1,0.5l0-0.2l0.1-0.5L63.9,66.7z M63.8,67.2v0.2l-0.2-0.1v-0.2L63.8,67.2z M63.8,67.5l-0.1,0.5
		l-0.3-0.1l0.1-0.5L63.8,67.5z M63.8,68v0.1l-0.3-0.1V68L63.8,68z M63.8,68.3l-0.1,0.4l-0.3-0.1l0.1-0.4L63.8,68.3z M63.7,68.7v0.1
		l-0.3-0.1v-0.1L63.7,68.7z M63.7,69l-0.1,0.5l-0.4-0.1l0.1-0.5L63.7,69z M63.6,69.6v0.1l-0.4-0.1v-0.1L63.6,69.6z M63.6,69.8
		l-0.1,0.5l-0.4-0.1l0.1-0.5L63.6,69.8z M63.5,70.4v0.1l-0.4-0.1v-0.1L63.5,70.4z M63.5,70.6l-0.1,0.5L63,71l0.1-0.5L63.5,70.6z
		 M63.4,71.2v0.1l-0.4-0.1v-0.1L63.4,71.2z M63.4,71.4L63.3,72l-0.5-0.1l0.1-0.5L63.4,71.4z M63.3,72.1v0.1l-0.5-0.1V72L63.3,72.1z
		 M63.3,72.3l-0.1,0.5l-0.5-0.1l0.1-0.5L63.3,72.3z M63.2,72.9V73l-0.5-0.1v-0.1L63.2,72.9z M63.2,73.1l-0.1,0.4h-0.3l-0.3-0.1
		l0.1-0.4L63.2,73.1z M92.1,77.5l-0.5-0.1v-0.1l0.5,0.1L92.1,77.5z M92.1,77.3l-0.5-0.1l0.1-0.4l0.5,0.1L92.1,77.3z M91.7,76.6v-0.1
		l0.5,0.1v0.1L91.7,76.6z M91.8,76.4l0.1-0.4l0.5,0.1l-0.1,0.4L91.8,76.4z M91.9,75.9v-0.1l0.5,0.1V76L91.9,75.9z M92,75.6l0.1-0.5
		l0.4,0.1l0,0l-0.1,0.5L92,75.6z M92.5,75.1L92.1,75v-0.1l0.4,0.1v-0.1l-0.4-0.1l0.1-0.5l0.4,0.1L92.5,75.1z M92.3,74.2V74l0.4,0.1
		v0.1L92.3,74.2z M92.4,73.9l0.1-0.5l0.3,0.1L92.7,74L92.4,73.9z M92.5,73.4v-0.1l0.3,0.1v0.1L92.5,73.4z M92.6,73.1l0.1-0.5
		l0.3,0.1l-0.1,0.5L92.6,73.1z M92.7,72.6v-0.1l0.3,0.1v0.1L92.7,72.6z M92.8,72.3l0.1-0.4l0.3,0.1l-0.1,0.4L92.8,72.3z M92.9,71.8
		v-0.1l0.3,0.1v0.1L92.9,71.8z M92.9,71.6l0.1-0.5l0.2,0.1l-0.1,0.5L92.9,71.6z M93.1,71.1v-0.2l0.2,0.1v0.2L93.1,71.1z M93.1,70.8
		l0.1-0.5l0.2,0.1l-0.1,0.5L93.1,70.8z M93.3,70.3v-0.2l0.2,0.1v0.2L93.3,70.3z M93.3,70l0.1-0.5l0.2,0.1l-0.1,0.5L93.3,70z
		 M93.5,69.5v-0.2l0.2,0v0.2L93.5,69.5z M93.5,69.2l0.1-0.6h0.1l-0.1,0.6H93.5z M93.7,68.6v-0.2h0.1v0.2H93.7z M93.7,68.3l0.6-2.5
		l-0.5,2.5L93.7,68.3z M93.6,68.3h-0.1l0.7-2.3L93.6,68.3z M93.6,68.4v0.2h-0.1v-0.2L93.6,68.4z M93.6,68.7l-0.1,0.6l-0.2,0l0.2-0.6
		L93.6,68.7z M93.4,69.3v0.2l-0.2-0.1v-0.2L93.4,69.3z M93.4,69.5L93.2,70L93,70l0.2-0.5L93.4,69.5z M93.2,70.1v0.2L93,70.2V70
		L93.2,70.1z M93.2,70.4L93,70.8l-0.2-0.1l0.1-0.5L93.2,70.4z M93,70.9v0.2L92.8,71v-0.1L93,70.9z M93,71.1l-0.1,0.5l-0.3-0.1
		l0.1-0.5L93,71.1z M92.8,71.7v0.1l-0.3-0.1v-0.1L92.8,71.7z M92.8,71.9l-0.1,0.4l-0.3-0.1l0.1-0.4L92.8,71.9z M92.6,72.4v0.1
		l-0.3-0.1v-0.1L92.6,72.4z M92.6,72.6l-0.1,0.5L92.1,73l0.2-0.5L92.6,72.6z M92.4,73.2v0.1l-0.4-0.1v-0.1L92.4,73.2z M92.4,73.5
		l-0.1,0.5l-0.4-0.1l0.1-0.5L92.4,73.5z M92.2,74v0.1L91.8,74v-0.1L92.2,74z M92.2,74.2l-0.1,0.5l-0.4-0.1l0.2-0.5L92.2,74.2z
		 M92,74.8V75l-0.4-0.1v-0.1L92,74.8z M92,75.1l-0.1,0.5l-0.5-0.1l0.2-0.5L92,75.1z M91.8,75.7v0.1l-0.5-0.1v-0.1L91.8,75.7z
		 M91.8,76l-0.1,0.4l-0.5-0.1l0.1-0.4L91.8,76z M91.6,76.5v0.1l-0.5-0.1v-0.1L91.6,76.5z M91.6,76.7l-0.1,0.4L90.9,77l0.1-0.4
		L91.6,76.7z M91.4,77.3v0.1l-0.6-0.1v-0.1L91.4,77.3z M94.9,78.5l1.3-2.2l0.7,0.4l-1.1,2L94.9,78.5z M96.8,75.3l0.1-0.2l0.7,0.4
		l-0.1,0.2L96.8,75.3z M97.4,75.8l-0.2,0.5l-0.7-0.4l0.3-0.5L97.4,75.8z M97,75l0.3-0.5l0.6,0.3l-0.3,0.5L97,75z M97.4,74.3l0.1-0.2
		l0.6,0.3L98,74.7L97.4,74.3z M97.6,74l0.3-0.6l0.6,0.3l-0.3,0.6L97.6,74z M98,73.3l0.1-0.2l0.6,0.3l-0.1,0.2L98,73.3z M98.2,73
		l0.4-0.7l0.5,0.3l-0.4,0.7L98.2,73z M98.6,72.2l0.1-0.2l0.5,0.3l0.1-0.1l-0.5-0.3l0.4-0.6l0.5,0.3l-0.5,1L98.6,72.2z M99.2,71.2
		l0.1-0.2l0.5,0.3l-0.1,0.2L99.2,71.2z M99.4,70.9l0.3-0.6l0.4,0.3l-0.3,0.6L99.4,70.9z M99.8,70.3l0.1-0.2l0.4,0.2l-0.1,0.2
		L99.8,70.3z M100,70l0.4-0.6l0.4,0.2l-0.3,0.6L100,70z M100.4,69.2l0.1-0.2l0.4,0.2l-0.1,0.2L100.4,69.2z M100.6,68.9l0.3-0.5
		l0.3,0.2l-0.3,0.5L100.6,68.9z M100.9,68.3l0.1-0.2l0.3,0.2l-0.1,0.2L100.9,68.3z M101.1,68l0.3-0.6l0.3,0.2l-0.3,0.6L101.1,68z
		 M101.5,67.4l0.1-0.2l0.3,0.2l-0.1,0.2L101.5,67.4z M101.7,67.1l0.3-0.6l0.2,0.2l-0.3,0.6L101.7,67.1z M102.1,66.4l0.1-0.2l0.2,0.1
		l-0.1,0.2L102.1,66.4z M102.3,66.1l0.4-0.6l0.2,0.1l-0.3,0.6L102.3,66.1z M102.7,65.4l0.1-0.2l0.2,0.1l-0.1,0.2L102.7,65.4z
		 M102.9,65.1l0.4-0.7l0.1,0.1l-0.4,0.7L102.9,65.1z M103.3,64.3l0.1-0.2l0.1,0.1l-0.1,0.2L103.3,64.3z M103.5,64l1.8-3.1l-1.7,3.2
		L103.5,64z M103.4,63.9l-0.1-0.1l1.8-2.8L103.4,63.9z M103.3,64l-0.1,0.2l-0.1-0.1l0.1-0.2L103.3,64z M103.2,64.3l-0.4,0.7
		l-0.2-0.1l0.4-0.7L103.2,64.3z M102.7,65.1l-0.1,0.2l-0.2-0.1l0.1-0.2L102.7,65.1z M102.5,65.4l-0.4,0.6l-0.2-0.1l0.4-0.6
		L102.5,65.4z M102.1,66.1l-0.1,0.2l-0.2-0.2l0.1-0.2L102.1,66.1z M101.9,66.4l-0.4,0.6l-0.3-0.2l0.4-0.6L101.9,66.4z M101.5,67.1
		l-0.1,0.2l-0.3-0.2l0.1-0.2L101.5,67.1z M101.3,67.4L101,68l-0.3-0.2l0.4-0.6L101.3,67.4z M100.9,68.1L100.9,68.1l-0.4-0.2l0.1-0.2
		L100.9,68.1z M100.8,68.4l-0.3,0.5l-0.4-0.2l0.3-0.5L100.8,68.4z M100.4,69l-0.1,0.2l-0.4-0.2l0.1-0.2L100.4,69z M100.2,69.3
		l-0.4,0.6l-0.4-0.3l0.4-0.6L100.2,69.3z M99.8,70l-0.1,0.2l-0.4-0.3l0.1-0.2L99.8,70z M99.6,70.3l-0.3,0.6l-0.5-0.3l0.4-0.6
		L99.6,70.3z M99.2,71l-0.1,0.2l-0.5-0.3l0.1-0.2L99.2,71z M99.1,71.3l-0.4,0.6l-0.5-0.3l0.4-0.6L99.1,71.3z M98.6,72l-0.1,0.2
		L98,71.9l0.1-0.2L98.6,72z M98.4,72.3L98,73l-0.6-0.3l0.4-0.7L98.4,72.3z M98,73.1l-0.1,0.2L97.3,73l0.1-0.2L98,73.1z M97.8,73.4
		L97.5,74l-0.7-0.4l0.4-0.5L97.8,73.4z M97.4,74.1l-0.1,0.2l-0.7-0.4l0.1-0.2L97.4,74.1z M97.2,74.4l-0.3,0.5l-0.7-0.4l0.3-0.5
		L97.2,74.4z M96.8,75.1l-0.1,0.2L96,74.9l0.1-0.2L96.8,75.1z M96.6,75.4l-0.3,0.5l-0.8-0.4l0.3-0.5L96.6,75.4z M96.3,76l-0.1,0.2
		l-0.8-0.4l0.1-0.2L96.3,76z M96.4,76.1l0.7,0.4L97,76.6l-0.7-0.4L96.4,76.1z M95.3,75.9l0.8,0.4l-1.2,2.1l-1-0.3L95.3,75.9z
		 M84.5,75.9l0.3-1.4l0.7,0.1L85.3,76L84.5,75.9z M85.1,73.5v-0.2l0.7,0.1v0.2L85.1,73.5z M85.7,73.8l-0.1,0.5l-0.7-0.1l0.1-0.5
		L85.7,73.8z M85.1,73.2l0.1-0.5l0.6,0.1l-0.1,0.5L85.1,73.2z M85.3,72.6v-0.2l0.6,0.1v0.2L85.3,72.6z M85.3,72.3l0.1-0.5l0.6,0.1
		l-0.1,0.5L85.3,72.3z M85.5,71.6v-0.2l0.6,0.1v0.2L85.5,71.6z M85.6,71.3l0.2-0.7l0.5,0.1l0,0l-0.1,0.7L85.6,71.3z M86.2,70.7
		l-0.5-0.1v-0.2l0.5,0.1v-0.1l-0.4-0.3l0.1-0.6l0.5,0.1L86.2,70.7z M86,69.5v-0.2l0.5,0.1v0.2L86,69.5z M86,69.2l0.1-0.6l0.4,0.1
		l-0.1,0.6L86,69.2z M86.2,68.6v-0.2l0.4,0.1v0.2L86.2,68.6z M86.2,68.3l0.1-0.6l0.4,0.1l-0.1,0.6L86.2,68.3z M86.4,67.6v-0.2
		l0.4,0.1v0.2L86.4,67.6z M86.5,67.3l0.1-0.5l0.3,0.1l-0.1,0.5L86.5,67.3z M86.6,66.7v-0.2l0.3,0.1v0.2L86.6,66.7z M86.7,66.4
		l0.1-0.6l0.3,0.1L87,66.5L86.7,66.4z M86.8,65.7v-0.2l0.3,0.1v0.2L86.8,65.7z M86.9,65.4l0.1-0.6l0.2,0.1l-0.1,0.6L86.9,65.4z
		 M87,64.8v-0.2l0.2,0.1v0.2L87,64.8z M87.1,64.5l0.1-0.6l0.2,0.1l-0.1,0.6L87.1,64.5z M87.2,63.8v-0.2l0.2,0.1v0.2L87.2,63.8z
		 M87.3,63.5l0.2-0.7l0.2,0l-0.1,0.7L87.3,63.5z M87.5,62.7v-0.2h0.1v0.2L87.5,62.7z M87.5,62.4l0.7-3.1l-0.6,3.1L87.5,62.4z
		 M87.4,62.4h-0.1l0.8-2.8L87.4,62.4z M87.4,62.5v0.2l-0.2,0L87.4,62.5L87.4,62.5z M87.3,62.8l-0.2,0.7L87,63.4l0.2-0.7L87.3,62.8z
		 M87.2,63.6v0.2L87,63.7l0.1-0.2L87.2,63.6z M87.1,63.9L87,64.5l-0.2-0.1l0.2-0.6L87.1,63.9z M86.9,64.6v0.2l-0.2-0.1l0.1-0.2
		L86.9,64.6z M86.9,64.9l-0.1,0.6l-0.3-0.1l0.2-0.6L86.9,64.9z M86.7,65.6v0.2l-0.3-0.1l0.1-0.2L86.7,65.6z M86.7,65.8l-0.1,0.6
		l-0.3-0.1l0.2-0.6L86.7,65.8z M86.5,66.5v0.2l-0.3-0.1l0.1-0.2L86.5,66.5z M86.4,66.8l-0.1,0.5l-0.4-0.1l0.1-0.5L86.4,66.8z
		 M86.3,67.4v0.2l-0.4-0.1l0.1-0.2L86.3,67.4z M86.2,67.7l-0.1,0.6l-0.4-0.1l0.2-0.6L86.2,67.7z M86.1,68.4v0.2l-0.4-0.1l0.1-0.2
		L86.1,68.4z M86,68.7l-0.2,0.4L85.4,69l0.2-0.6L86,68.7z M85.9,69.4v0.2l-0.5-0.1v-0.2L85.9,69.4z M85.8,69.7l-0.1,0.6l-0.5-0.1
		l0.2-0.6L85.8,69.7z M85.6,70.4v0.2l-0.6-0.1v-0.2L85.6,70.4z M85.6,70.7l-0.2,0.7l-0.6-0.1l0.2-0.7L85.6,70.7z M85.4,71.5v0.2
		l-0.6-0.1v-0.2L85.4,71.5z M85.3,71.8l-0.1,0.5l-0.6-0.1l0.2-0.5L85.3,71.8z M85.2,72.4v0.2l-0.7-0.1v-0.2L85.2,72.4z M85.1,72.7
		L85,73.2l-0.7-0.1l0.1-0.5L85.1,72.7z M85,73.4v0.2l-0.7-0.1v-0.2L85,73.4z M84.9,73.6l-0.1,0.5L84.1,74l0.1-0.5L84.9,73.6z
		 M84.8,74.2v0.2L84,74.2v-0.1L84.8,74.2z M84.9,74.2l0.7,0.1v0.2l-0.7-0.1V74.2z M83.9,74.4l0.8,0.2l-0.3,1.4l-0.8-0.2L83.9,74.4z
		 M80.8,75.1l0.2-0.6l0.6,0.1l-0.1,0.6L80.8,75.1z M81.2,73.6v-0.1l0.5,0.1v0.1L81.2,73.6z M81.7,73.9l-0.1,0.4l-0.6-0.1l0.1-0.4
		L81.7,73.9z M81.3,73.4l0.1-0.4l0.5,0.1l-0.1,0.4L81.3,73.4z M81.4,72.9v-0.1l0.5,0.1V73L81.4,72.9z M81.4,72.6l0.1-0.4l0.5,0.1
		l-0.1,0.4L81.4,72.6z M81.6,72.1V72l0.5,0.1v0.1L81.6,72.1z M81.6,71.9l0.1-0.5l0.4,0.1L82.1,72L81.6,71.9z M82.2,71.3l-0.4-0.1
		v-0.1l0.4,0.1v-0.1L81.8,71l0.1-0.5l0.4,0.1L82.2,71.3z M82,70.4v-0.1l0.4,0.1v0.1L82,70.4z M82.1,70.2l0.1-0.5l0.3,0.1l-0.1,0.5
		L82.1,70.2z M82.2,69.6v-0.1l0.3,0.1v0.1L82.2,69.6z M82.2,69.4l0.1-0.5l0.3,0.1l-0.1,0.5L82.2,69.4z M82.4,68.8v-0.1l0.3,0.1v0.1
		L82.4,68.8z M82.4,68.6l0.1-0.4l0.3,0.1l-0.1,0.4L82.4,68.6z M82.6,68.1v-0.1l0.3,0.1v0.1L82.6,68.1z M82.6,67.8l0.1-0.5l0.2,0.1
		l-0.1,0.5L82.6,67.8z M82.8,67.3v-0.2l0.2,0.1v0.2L82.8,67.3z M82.8,67.1l0.1-0.5l0.2,0.1L83,67.1L82.8,67.1z M82.9,66.5v-0.2
		l0.2,0.1v0.2L82.9,66.5z M83,66.3l0.1-0.5l0.2,0.1l-0.1,0.5L83,66.3z M83.1,65.7v-0.2l0.2,0v0.2L83.1,65.7z M83.2,65.5l0.1-0.6h0.1
		l-0.1,0.6H83.2z M83.4,64.8v-0.2h0.1v0.2L83.4,64.8z M83.4,64.6l0.6-2.5l-0.5,2.5L83.4,64.6z M83.3,64.6h-0.1l0.7-2.3L83.3,64.6z
		 M83.3,64.7v0.2h-0.1v-0.2L83.3,64.7z M83.3,64.9l-0.1,0.6l-0.2,0l0.2-0.6L83.3,64.9z M83.1,65.5v0.2l-0.2-0.1v-0.2L83.1,65.5z
		 M83,65.8l-0.1,0.5l-0.2-0.1l0.2-0.5L83,65.8z M82.9,66.4v0.2l-0.2-0.1v-0.2L82.9,66.4z M82.8,66.6l-0.1,0.5L82.5,67l0.1-0.5
		L82.8,66.6z M82.7,67.1v0.2l-0.2-0.1v-0.1L82.7,67.1z M82.6,67.4l-0.1,0.5l-0.3-0.1l0.1-0.5L82.6,67.4z M82.5,67.9v0.1L82.2,68
		v-0.1L82.5,67.9z M82.4,68.2l-0.1,0.4L82,68.5l0.1-0.4L82.4,68.2z M82.3,68.6v0.1L82,68.7v-0.1L82.3,68.6z M82.3,68.9l-0.1,0.5
		l-0.3-0.1l0.1-0.5L82.3,68.9z M82.1,69.5v0.1l-0.4-0.1v-0.1L82.1,69.5z M82.1,69.7L82,70.2l-0.4-0.1l0.1-0.5L82.1,69.7z M81.9,70.2
		v0.1l-0.4-0.1v-0.1L81.9,70.2z M81.9,70.5L81.7,71l-0.4-0.1l0.2-0.5L81.9,70.5z M81.7,71.1v0.1l-0.4-0.1V71L81.7,71.1z M81.7,71.3
		l-0.1,0.5L81,71.7l0.2-0.5L81.7,71.3z M81.5,72v0.1L81,72v-0.1L81.5,72z M81.4,72.2l-0.1,0.4l-0.5-0.1l0.1-0.4L81.4,72.2z
		 M81.3,72.7v0.1l-0.5-0.1v-0.1L81.3,72.7z M81.2,73l-0.1,0.4l-0.6-0.1l0.1-0.4L81.2,73z M81.1,73.5v0.1l-0.6-0.1v-0.1L81.1,73.5z
		 M81,73.7L81,74.1L80.4,74l0.1-0.4L81,73.7z M80.9,74.2v0.1l-0.6-0.1v-0.1L80.9,74.2z M81,74.2l0.6,0.1v0.1L81,74.3L81,74.2z
		 M80.2,74.3l0.6,0.1l-0.2,0.6L80,75L80.2,74.3z M65.6,73.6l0.1-1.1l0.7,0.1c0,0.4,0,0.7,0,1.1L65.6,73.6z M64.8,72.1l0.8,0.1v0.2
		l-0.8-0.1L64.8,72.1z M66.8,60.2v0.2h-0.2v-0.2H66.8z M66.6,60.1l0.3-3.2c0,0.8-0.1,1.9-0.1,3.2L66.6,60.1z M66.4,71.6v0.5L65.7,72
		v-0.5L66.4,71.6z M65.7,71.4v-0.2l0.7,0.1v0.2L65.7,71.4z M66.4,71.2l-0.6-0.1v-0.5l0.6,0V71.2z M65.8,70.5v-0.2l0.6,0
		c0,0,0,0.1,0,0.2L65.8,70.5z M66.4,70.2l-0.6,0v-0.5l0.6,0.1C66.5,69.9,66.4,70,66.4,70.2L66.4,70.2z M65.9,69.5v-0.2l0.6,0.1v0.2
		L65.9,69.5z M65.9,69.2l0.1-0.7l0.5,0.1l0,0c0,0.2,0,0.5,0,0.7L65.9,69.2z M65.9,68.1l0.1-0.6l0.5,0v0.9L66,68.4v-0.2l0.5,0.1v-0.1
		L65.9,68.1z M66.5,66.4l-0.4-0.1v-0.2l0.4,0.1L66.5,66.4z M66.5,66.5c0,0.2,0,0.4,0,0.6l-0.5,0v-0.6L66.5,66.5z M66.5,67.2v0.2
		l-0.5,0v-0.2L66.5,67.2z M66.5,66.1l-0.4-0.1l0.1-0.6l0.4,0C66.6,65.7,66.6,65.9,66.5,66.1L66.5,66.1z M66.2,65.4v-0.2l0.4,0
		c0,0.1,0,0.1,0,0.2L66.2,65.4z M66.2,65.1v-0.5h0.3c0,0.2,0,0.3,0,0.5L66.2,65.1z M66.2,64.5v-0.2h0.3v0.2H66.2z M66.2,64.2v-0.6
		h0.3v0.6H66.2z M66.2,63.5v-0.2h0.3v0.2H66.2z M66.2,63.2v-0.6h0.3v0.6H66.2z M66.3,62.5v-0.2h0.2c0,0.1,0,0.1,0,0.2H66.3z
		 M66.3,62.2l0.1-0.6h0.2c0,0.2,0,0.4,0,0.6H66.3z M66.3,61.5v-0.2h0.2c0,0.1,0,0.1,0,0.2H66.3z M66.3,61.2l0.1-0.7h0.2
		c0,0.2,0,0.5,0,0.7L66.3,61.2z M66.3,60.3h-0.2v-0.2h0.2L66.3,60.3z M66.3,60.4l-0.1,0.7H66l0.1-0.7H66.3z M66.2,61.2v0.2H66v-0.2
		H66.2z M66.2,61.5l-0.1,0.6h-0.2l0.1-0.6L66.2,61.5z M66.1,62.3v0.2h-0.3v-0.2H66.1z M66.1,62.6v0.6h-0.3l0.1-0.6H66.1z M66.1,63.3
		v0.2h-0.3v-0.2H66.1z M66.1,63.6v0.6l-0.2,0l0.1-0.6L66.1,63.6z M66,64.2v0.2l-0.4,0v-0.2L66,64.2z M66,64.5V65l-0.4,0l0.1-0.5
		L66,64.5z M66,65.1v0.2l-0.4-0.1v-0.2L66,65.1z M66,65.4L66,66L65.5,66l0.1-0.6L66,65.4z M66,66.1v0.2l-0.5-0.1v-0.2L66,66.1z
		 M66,66.4V67L65.5,67l0.1-0.6L66,66.4z M65.9,67.1v0.2l-0.5-0.1v-0.2L65.9,67.1z M65.9,67.4l-0.1,0.7L65.3,68l0.1-0.6L65.9,67.4z
		 M65.9,68.2v0.2l-0.6-0.1v-0.2L65.9,68.2z M65.9,68.5l-0.1,0.7l-0.6-0.1l0.1-0.7L65.9,68.5z M65.8,69.3v0.2l-0.6-0.1v-0.2
		L65.8,69.3z M65.8,69.6v0.5l-0.7-0.1l0.1-0.6L65.8,69.6z M65.7,70.3v0.2l-0.7-0.1v-0.2L65.7,70.3z M65.7,70.6v0.5L65,71l0.1-0.5
		L65.7,70.6z M65.7,71.2v0.2L65,71.3v-0.2L65.7,71.2z M65.7,71.5V72l-0.8-0.1l0.1-0.5L65.7,71.5z M65.8,72.1l0.7,0.1v0.2l-0.7-0.1
		L65.8,72.1z M66.8,57.1l-0.2,3h-0.1L66.8,57.1z M64.8,72.4l0.8,0.1l-0.1,1.1h-0.8L64.8,72.4z M63.2,73.4l0.1-0.4l0.5,0.1v0.3
		L63.2,73.4z M42.2,73.5v-0.5l1-0.1l0.1,0.5L42.2,73.5z M40.3,56.1l0.4,3.8h-0.2C40.4,58.4,40.4,57.1,40.3,56.1z M40.5,60.1h0.2v0.2
		h-0.2L40.5,60.1z M41,71.9l0.9-0.1V72L41,72L41,71.9z M41,72.2l0.9-0.1v0.5L41,72.7L41,72.2z M42,72.1l1-0.1l0.1,0.5l-1,0.1
		L42,72.1z M43,71.9L42,72v-0.2l0.9-0.1L43,71.9z M42,71.7l-0.1-0.5l0.9,0l0.1,0.5L42,71.7z M42.8,70.9L41.9,71v-0.2l0.9-0.1
		L42.8,70.9z M40.9,70.9l0.8-0.1V71l-0.8,0.1L40.9,70.9z M41.9,70.7l0-0.6l0.8-0.1l0.1,0.6L41.9,70.7z M42.6,69.9l-0.8,0.1v-0.2
		l0.8-0.1L42.6,69.9z M41.8,69.6l-0.1-0.7l0.8-0.1l0.1,0.7L41.8,69.6z M40.8,66.5l0.6-0.1v0.2l-0.6,0.1L40.8,66.5z M40.8,67.5
		l0.6-0.1v0.2l-0.6,0.1C40.8,67.7,40.8,67.6,40.8,67.5L40.8,67.5z M40.8,67.4v-0.6l0.6-0.1l0.1,0.6L40.8,67.4z M40.8,67.8l0.7-0.1
		l0.1,0.6l-0.7,0.1v0.1l0.7-0.1v0.2l-0.7,0.1V69l0.7-0.1l0.1,0.7l-0.8,0.1L40.8,67.8z M42.4,68.7l-0.7,0.1v-0.2l0.7-0.1L42.4,68.7z
		 M41.7,68.4l-0.1-0.6l0.7-0.1l0.1,0.6L41.7,68.4z M42.3,67.6l-0.7,0.1v-0.2l0.7-0.1L42.3,67.6z M41.6,67.3l-0.1-0.6l0.6-0.1
		l0.1,0.6L41.6,67.3z M42.1,66.5l-0.6,0.1v-0.2l0.6-0.1L42.1,66.5z M41.5,66.3l-0.1-0.6l0.6-0.1l0.1,0.6L41.5,66.3z M41.9,65.4
		l-0.5,0.1v-0.2l0.5-0.1L41.9,65.4z M41.4,65.2v-0.5l0.5-0.1l0.1,0.5L41.4,65.2z M41.8,64.5l-0.5,0.1v-0.2l0.5,0L41.8,64.5z
		 M41.3,64.2l-0.1-0.6l0.4,0l0.1,0.6L41.3,64.2z M41.6,63.5l-0.4,0v-0.2l0.4,0L41.6,63.5z M41.2,63.2l-0.1-0.6h0.4l0.1,0.6H41.2z
		 M41.5,62.4h-0.4v-0.2h0.3L41.5,62.4z M41.1,62.1L41,61.5h0.3l0.1,0.6L41.1,62.1z M41.3,61.3H41v-0.2h0.3L41.3,61.3z M41,61.1
		l-0.1-0.8h0.2l0.1,0.8H41z M41.1,60.2h-0.2V60h0.2L41.1,60.2z M40.7,60.3l0.1,0.8h-0.3c0-0.2,0-0.5,0-0.8L40.7,60.3z M40.5,61.2
		h0.3v0.2h-0.3L40.5,61.2z M40.9,61.5l0.1,0.6h-0.3v-0.6H40.9z M40.6,62.3h0.3v0.2h-0.3L40.6,62.3z M41,62.6l0.1,0.6h-0.4v-0.6H41z
		 M40.6,63.4H41v0.2h-0.4L40.6,63.4z M41.1,63.6l0.1,0.6l-0.4,0c0-0.2,0-0.4,0-0.6L41.1,63.6z M40.7,64.4l0.4,0v0.2l-0.5,0
		L40.7,64.4z M41.2,64.7v0.5l-0.5,0.1v-0.5L41.2,64.7z M40.7,65.4l0.5-0.1v0.2l-0.5,0.1L40.7,65.4z M41.2,65.6l0.1,0.6l-0.6,0.1
		c0-0.2,0-0.4,0-0.6L41.2,65.6z M40.8,69.8l0.8-0.1v0.2L40.8,70L40.8,69.8z M41.6,70.1l0.1,0.6l-0.8,0.1c0-0.2,0-0.4,0-0.6
		L41.6,70.1z M41.7,71.1l0.1,0.5l-0.9,0.1c0-0.2,0-0.4,0-0.5L41.7,71.1z M41,72.8l0.9-0.1v0.1L40.9,73L41,72.8z M42.1,72.8l1-0.1
		v0.1l-1,0.1V72.8z M41.1,59.9h-0.2l-0.3-3.5L41.1,59.9z M40.2,54.6L40.2,54.6L40.2,54.6z M41,73.2l1-0.1v0.5l-1,0.1V73.2z
		 M26.7,75.2l-0.1-0.3l0.6-0.1l0.1,0.4L26.7,75.2z M26.4,74v-0.1l0.6-0.1v0.1L26.4,74z M27,74l0.1,0.4l-0.6,0.1l-0.1-0.4L27,74z
		 M26.3,73.8l-0.1-0.4l0.5-0.1l0.1,0.4L26.3,73.8z M26.2,73.3v-0.1l0.5-0.1v0.1L26.2,73.3z M26.1,73.1L26,72.6l0.5-0.1l0.1,0.4
		L26.1,73.1z M26,72.5v-0.1l0.5-0.1v0.1L26,72.5z M25.9,72.3l-0.1-0.5l0.5-0.1l0.2,0.5L25.9,72.3z M25.8,71.7v-0.1l0.4-0.1v0.1
		L25.8,71.7z M25.7,71.4l-0.1-0.5l0.4-0.1l0.2,0.5L25.7,71.4z M25.5,70.8v-0.1l0.4-0.1v0.1L25.5,70.8z M25.5,70.6l-0.1-0.5l0.4-0.1
		l0.2,0.5L25.5,70.6z M25.3,70.1v-0.1l0.3-0.1V70L25.3,70.1z M25.3,69.8l-0.1-0.5l0.3-0.1l0.2,0.5L25.3,69.8z M25.1,69.3v-0.1
		l0.3-0.1v0.1L25.1,69.3z M25.1,69L25,68.6l0.3-0.1l0.1,0.4L25.1,69z M24.9,68.5v-0.1l0.3-0.1v0.1L24.9,68.5z M24.9,68.3l-0.1-0.5
		l0.2-0.1l0.1,0.5L24.9,68.3z M24.7,67.8v-0.2l0.2-0.1v0.1L24.7,67.8z M24.7,67.5L24.6,67l0.2-0.1l0.2,0.5L24.7,67.5z M24.5,67v-0.2
		l0.2-0.1v0.2L24.5,67z M24.5,66.7l-0.1-0.5l0.2-0.1l0.2,0.5L24.5,66.7z M24.3,66.2V66l0.2-0.1l0,0.2L24.3,66.2z M24.3,65.9
		l-0.2-0.6h0.1l0.2,0.6L24.3,65.9z M24.1,65.3v-0.2h0.1l0,0.2H24.1z M24,65l-0.6-2.3l0.7,2.3L24,65z M23.9,65L23.9,65l-0.6-2.5
		L23.9,65z M23.9,65.1v0.2h-0.1v-0.2L23.9,65.1z M24,65.4l0.2,0.6L24,66l-0.1-0.6L24,65.4z M24.2,66v0.2L24,66.2V66L24.2,66z
		 M24.2,66.2l0.1,0.5l-0.2,0.1l-0.1-0.5L24.2,66.2z M24.4,66.8V67L24.2,67v-0.2L24.4,66.8z M24.4,67l0.1,0.5l-0.2,0.1l-0.1-0.5
		L24.4,67z M24.6,67.6v0.1l-0.2,0.1v-0.2L24.6,67.6z M24.6,67.8l0.1,0.5l-0.3,0.1l-0.1-0.5L24.6,67.8z M24.8,68.4v0.1l-0.3,0.1v-0.1
		L24.8,68.4z M24.8,68.6l0.1,0.4l-0.3,0.1l-0.1-0.4L24.8,68.6z M25,69.1v0.1l-0.3,0.1v-0.1L25,69.1z M25,69.3l0.1,0.5l-0.3,0.1
		l-0.1-0.5L25,69.3z M25.2,69.9v0.1l-0.3,0.1V70L25.2,69.9z M25.2,70.1l0.1,0.5L25,70.7l-0.1-0.5L25.2,70.1z M25.4,70.7v0.1L25,70.9
		v-0.1L25.4,70.7z M25.5,70.9l0.1,0.5l-0.4,0.1v0.1l0.4-0.1v0.1l-0.4,0.1L25,71L25.5,70.9z M25.3,71.9L25.3,71.9l0.4-0.1l0.1,0.5
		l-0.5,0.1L25.3,71.9z M25.9,72.4v0.1l-0.5,0.1v-0.1L25.9,72.4z M25.9,72.6l0.1,0.4l-0.5,0.1l-0.1-0.4L25.9,72.6z M26.1,73.2v0.1
		l-0.5,0.1v-0.1L26.1,73.2z M26.1,73.4l0.1,0.4L25.7,74l-0.1-0.4L26.1,73.4z M26.3,73.9v0.1l-0.5,0.1v-0.1L26.3,73.9z M26.3,74.2
		l0.1,0.4l-0.6,0.1l-0.1-0.4L26.3,74.2z M25.9,74.8l0.6-0.1v0.1l-0.6,0.1L25.9,74.8z M26.6,74.6l0.6-0.1v0.1l-0.6,0.1L26.6,74.6z
		 M25.9,75l0.6-0.1l0.1,0.3L26,75.3L25.9,75z M23,75.8l-0.2-0.9l0.8-0.2l0.3,1L23,75.8z M22.5,73.9v-0.2l0.7-0.2l0,0.2L22.5,73.9z
		 M23.2,73.9l0.1,0.5l-0.7,0.2l-0.1-0.5L23.2,73.9z M22.4,73.7l-0.1-0.5l0.7-0.2l0.2,0.5L22.4,73.7z M22.2,73v-0.2l0.6-0.2l0,0.2
		L22.2,73z M22.2,72.7L22,72.2l0.6-0.2l0.2,0.5L22.2,72.7z M22,72.1v-0.2l0.6-0.1l0,0.2L22,72.1z M21.9,71.8l-0.1-0.7l0.5-0.1
		l0.2,0.6L21.9,71.8z M21.7,71v-0.2l0.5-0.1l0.1,0.2L21.7,71z M21.6,70.7l-0.2-0.6l0.5-0.1l0.2,0.6L21.6,70.7z M21.4,70v-0.2
		l0.5-0.1l0,0.2L21.4,70z M21.3,69.7l-0.2-0.6l0.5-0.1l0.2,0.6L21.3,69.7z M21.2,69v-0.2l0.4-0.1l0.1,0.2L21.2,69z M21.1,68.8
		l-0.2-0.6l0.4-0.1l0.2,0.6L21.1,68.8z M20.9,68.1v-0.2l0.4-0.1l0.1,0.2L20.9,68.1z M20.8,67.8l-0.1-0.5l0.3-0.1l0.2,0.5L20.8,67.8z
		 M20.6,67.2V67l0.3-0.1l0.1,0.2L20.6,67.2z M20.6,66.9l-0.2-0.6l0.3-0.1l0.2,0.5L20.6,66.9z M20.4,66.1v-0.2l0.3-0.1l0.1,0.2
		L20.4,66.1z M20.4,65.8l-0.2-0.6l0.3-0.1l0.2,0.6L20.4,65.8z M20.2,65.1l0-0.2l0.2-0.1l0.1,0.2L20.2,65.1z M20.1,64.8l-0.2-0.6
		l0.2-0.1l0.2,0.6L20.1,64.8z M19.9,64.1l0-0.2l0.2-0.1l0.1,0.2L19.9,64.1z M19.8,63.8l-0.2-0.7l0.2-0.1l0.2,0.7L19.8,63.8z
		 M19.6,63.1l0-0.2l0.1,0l0.1,0.2L19.6,63.1z M19.6,62.8L18.9,60l0.9,2.8L19.6,62.8z M19.4,62.8l-0.1,0l-0.7-3.1L19.4,62.8z
		 M19.4,62.9l0,0.2l-0.2,0.1V63L19.4,62.9z M19.5,63.2l0.2,0.7L19.5,64l-0.2-0.7L19.5,63.2z M19.7,64l0,0.2l-0.2,0.1v-0.2L19.7,64z
		 M19.8,64.3l0.2,0.6L19.7,65l-0.1-0.6L19.8,64.3z M20,65l0,0.2l-0.2,0.1v-0.2L20,65z M20.1,65.3l0.2,0.6L20,66l-0.1-0.6L20.1,65.3z
		 M20.3,66v0.2L20,66.2v-0.2L20.3,66z M20.3,66.3l0.2,0.6l-0.3,0.1l-0.1-0.6L20.3,66.3z M20.5,66.9v0.2l-0.3,0.1V67L20.5,66.9z
		 M20.6,67.2l0.1,0.5l-0.4,0.1l-0.1-0.5L20.6,67.2z M20.8,67.8V68l-0.4,0.1v-0.2L20.8,67.8z M20.9,68.1l0.2,0.6l-0.4,0.1l-0.1-0.6
		L20.9,68.1z M21,68.8V69l-0.4,0.1v-0.2L21,68.8z M21.1,69.1l0.2,0.6l-0.5,0.1l-0.1-0.5L21.1,69.1z M21.3,69.8v0.2l-0.5,0.2v-0.2
		L21.3,69.8z M21.4,70l0.2,0.6L21,70.8v0.1l0.5-0.1v0.2L21,71.1l-0.2-0.9L21.4,70z M21.1,71.2l0.5-0.1l0.2,0.6l-0.5,0.1L21.1,71.2z
		 M21.9,71.8V72l-0.6,0.1V72L21.9,71.8z M21.9,72.1l0.1,0.5l-0.6,0.1l-0.1-0.5L21.9,72.1z M22.1,72.8V73l-0.6,0.1v-0.2L22.1,72.8z
		 M22.2,73.1l0.1,0.5l-0.6,0.2l-0.1-0.5L22.2,73.1z M22.4,73.7v0.2L21.7,74v-0.2L22.4,73.7z M22.5,74l0.1,0.5l-0.7,0.2l-0.1-0.5
		L22.5,74z M22.6,74.6v0.2l-0.7,0.2v-0.2L22.6,74.6z M22.8,74.6l0.7-0.2v0.1l-0.7,0.2L22.8,74.6z M22,75.1l0.7-0.2l0.2,0.9L22.2,76
		L22,75.1z M15.4,77.8l-0.6-2.4l0.6-0.1l0.7,2.3L15.4,77.8z M14.5,74.6v-0.1l0.6-0.1v0.1L14.5,74.6z M15.1,74.6l0.1,0.4l-0.6,0.1
		l-0.1-0.4L15.1,74.6z M14.5,74.4L14.4,74l0.5-0.1l0.1,0.4L14.5,74.4z M14.3,73.9v-0.1l0.5-0.1v0.1L14.3,73.9z M14.3,73.6l-0.1-0.4
		l0.5-0.1l0.1,0.4L14.3,73.6z M14.1,73.1V73l0.5-0.1V73L14.1,73.1z M14.1,72.9l-0.1-0.5l0.5-0.1l0.2,0.5L14.1,72.9z M13.9,72.2v-0.1
		l0.4-0.1v0.1L13.9,72.2z M13.8,72l-0.1-0.5l0.4-0.1l0.2,0.5L13.8,72z M13.7,71.4v-0.1l0.4-0.1v0.1L13.7,71.4z M13.6,71.2l-0.1-0.5
		l0.4-0.1L14,71L13.6,71.2z M13.5,70.6v-0.1l0.3-0.1v0.1L13.5,70.6z M13.4,70.4l-0.1-0.5l0.3-0.1l0.2,0.5L13.4,70.4z M13.3,69.8
		v-0.1l0.3-0.1v0.1L13.3,69.8z M13.2,69.6l-0.1-0.4l0.3-0.1l0.1,0.4L13.2,69.6z M13.1,69.1v-0.1l0.3-0.1V69L13.1,69.1z M13,68.8
		l-0.1-0.5l0.2-0.1l0.1,0.5L13,68.8z M12.9,68.3v-0.1l0.2-0.1v0.1L12.9,68.3z M12.8,68.1l-0.1-0.5l0.2-0.1l0.2,0.5L12.8,68.1z
		 M12.7,67.5v-0.2l0.2-0.1l0,0.2L12.7,67.5z M12.6,67.3l-0.1-0.5l0.2-0.1l0.2,0.5L12.6,67.3z M12.5,66.7v-0.2l0.2-0.1l0,0.2
		L12.5,66.7z M12.4,66.5l-0.2-0.6h0.1l0.2,0.6L12.4,66.5z M12.2,65.8v-0.2h0.1l0,0.2L12.2,65.8z M12.2,65.6l-0.6-2.3l0.7,2.3
		L12.2,65.6z M12.1,65.6H12l-0.6-2.5L12.1,65.6z M12.1,65.7v0.2h-0.1v-0.2H12.1z M12.1,65.9l0.2,0.6l-0.2,0L12,66L12.1,65.9z
		 M12.3,66.5v0.2l-0.2,0.1v-0.2L12.3,66.5z M12.4,66.8l0.1,0.5l-0.2,0.1l-0.1-0.5L12.4,66.8z M12.5,67.4v0.2l-0.2,0.1v-0.2
		L12.5,67.4z M12.6,67.6l0.1,0.5l-0.2,0.1l-0.1-0.5L12.6,67.6z M12.7,68.1v0.2l-0.2,0.1v-0.2L12.7,68.1z M12.8,68.4l0.1,0.5
		l-0.3,0.1l-0.1-0.5L12.8,68.4z M12.9,68.9v0.1l-0.3,0.1V69L12.9,68.9z M13,69.2l0.1,0.4l-0.3,0.1l-0.1-0.4L13,69.2z M13.1,69.6v0.1
		l-0.3,0.1v-0.1L13.1,69.6z M13.2,69.9l0.1,0.5L13,70.5L12.9,70L13.2,69.9z M13.3,70.5v0.1L13,70.7v-0.1L13.3,70.5z M13.4,70.7
		l0.1,0.5l-0.4,0.1L13,70.8L13.4,70.7z M13.5,71.2v0.1l-0.4,0.1v-0.1L13.5,71.2z M13.6,71.5l0.1,0.5l-0.4,0.1v0.1l0.4-0.1v0.1
		l-0.4,0.1l-0.2-0.7L13.6,71.5z M13.4,72.4l0.4-0.1l0.1,0.5L13.5,73L13.4,72.4z M14,72.9v0.1l-0.5,0.1v-0.1L14,72.9z M14,73.2
		l0.1,0.4l-0.5,0.1l-0.1-0.4L14,73.2z M14.2,73.7v0.1L13.7,74v-0.1L14.2,73.7z M14.2,74l0.1,0.4l-0.5,0.1l-0.1-0.4L14.2,74z
		 M14.4,74.5v0.1l-0.5,0.1v-0.1L14.4,74.5z M14.4,74.7l0.1,0.4L14,75.2l-0.1-0.4L14.4,74.7z M14.6,75.2v0.1L14,75.5v-0.1L14.6,75.2z
		 M14.7,75.2l0.6-0.1v0.1l-0.6,0.1V75.2z M14.1,75.6l0.6-0.1l0.6,2.4l-0.7,0.2L14.1,75.6z M10.7,79.6l-1.5-2.9l0.7-0.4l1.7,2.8
		L10.7,79.6z M8.7,75.8l-0.1-0.1l0.7-0.3l0.1,0.1L8.7,75.8z M9.4,75.6L9.7,76L9,76.3l-0.2-0.4L9.4,75.6z M8.5,75.5L8.3,75l0.6-0.3
		l0.3,0.5L8.5,75.5z M8.2,74.9l-0.1-0.2l0.6-0.3l0.1,0.1L8.2,74.9z M8.1,74.6l-0.3-0.5l0.6-0.3l0.3,0.5L8.1,74.6z M7.7,73.9
		l-0.1-0.2l0.6-0.3l0.1,0.2L7.7,73.9z M7.6,73.7L7.2,73l0.5-0.3l0.4,0.6L7.6,73.7z M7.2,72.9l-0.1-0.2l0.5-0.3l0.1,0.2L7.2,72.9z
		 M7,72.6L6.7,72l0.5-0.2l0.3,0.6L7,72.6z M6.7,71.9l-0.1-0.2L7,71.5l0.1,0.2L6.7,71.9z M6.5,71.6l-0.3-0.5l0.4-0.2L7,71.4L6.5,71.6
		z M6.2,71l-0.1-0.2l0.4-0.2l0.1,0.2L6.2,71z M6,70.7l-0.3-0.6l0.4-0.2l0.3,0.6L6,70.7z M5.7,70l-0.1-0.2l0.4-0.2L6,69.8L5.7,70z
		 M5.5,69.7l-0.2-0.5l0.3-0.2l0.3,0.5L5.5,69.7z M5.2,69.2L5.1,69l0.3-0.2L5.5,69L5.2,69.2z M5.1,68.9l-0.3-0.5l0.3-0.2l0.3,0.5
		L5.1,68.9z M4.7,68.2l-0.1-0.2l0.3-0.2L5,68.1L4.7,68.2z M4.6,68l-0.3-0.6l0.2-0.1l0.3,0.5L4.6,68z M4.2,67.3l-0.1-0.2L4.3,67
		l0.1,0.2L4.2,67.3z M4.1,67l-0.3-0.6l0.2-0.1l0.3,0.6L4.1,67z M3.7,66.3l-0.1-0.2L3.8,66l0.1,0.2L3.7,66.3z M3.5,66.1l-0.4-0.7
		l0.1-0.1L3.7,66L3.5,66.1z M3.1,65.3L3,65.1L3.2,65l0.1,0.2L3.1,65.3z M3,65l-1.5-2.7l1.6,2.7L3,65z M2.9,65.1l-0.1,0.1l-1.4-3
		L2.9,65.1z M2.9,65.2L3,65.4l-0.1,0.1l-0.1-0.2L2.9,65.2z M3,65.5l0.4,0.7l-0.2,0.1l-0.4-0.8L3,65.5z M3.4,66.2l0.1,0.2l-0.2,0.1
		l-0.1-0.2L3.4,66.2z M3.6,66.5l0.3,0.6l-0.2,0.1l-0.3-0.6L3.6,66.5z M3.9,67.2L4,67.4l-0.2,0.1l-0.1-0.2L3.9,67.2z M4.1,67.5
		L4.4,68l-0.3,0.1l-0.3-0.6L4.1,67.5z M4.4,68.1l0.1,0.2l-0.3,0.2l-0.1-0.2L4.4,68.1z M4.6,68.4L4.9,69l-0.3,0.2l-0.3-0.6L4.6,68.4z
		 M4.9,69.1L5,69.2l-0.3,0.2l-0.1-0.2L4.9,69.1z M5.1,69.3l0.2,0.5L5,70l-0.2-0.5L5.1,69.3z M5.4,69.9l0.1,0.2l-0.4,0.2L5,70.1
		L5.4,69.9z M5.5,70.2l0.3,0.6L5.4,71l-0.3-0.6L5.5,70.2z M5.9,70.9L6,71.1l-0.4,0.2l-0.1-0.2L5.9,70.9z M6,71.2l0.3,0.5l-0.4,0.2
		l-0.3-0.5L6,71.2z M6.4,71.8L6.5,72L6,72.2L5.9,72L6.4,71.8z M6.5,72.1l0.3,0.6l-0.5,0.2l0.1,0.1l0.5-0.2L7,73l-0.5,0.3l-0.4-0.9
		L6.5,72.1z M7.1,73.1l0.3,0.6L6.9,74l-0.3-0.6L7.1,73.1z M7.5,73.9L7.5,74L7,74.3l-0.1-0.2L7.5,73.9z M7.6,74.1l0.3,0.5L7.3,75
		l-0.2-0.5L7.6,74.1z M8,74.8L8,75l-0.6,0.3l-0.1-0.2L8,74.8z M8.1,75.1l0.3,0.5l-0.6,0.3l-0.2-0.5L8.1,75.1z M8.4,75.7l0.1,0.2
		l-0.7,0.2l-0.1-0.2L8.4,75.7z M8.6,76l0.2,0.4l-0.7,0.3l-0.2-0.5L8.6,76z M8.9,76.5L9,76.7L8.3,77l-0.1-0.2L8.9,76.5z M9,76.5
		l0.7-0.3l0.1,0.1l-0.7,0.4L9,76.5z M8.3,77.2L9,76.8l1.5,2.9l-0.8,0.4L8.3,77.2z"/>
</g>
<g id="houses_of_parliament">
	<rect x="382" y="43.8" class="st0" width="12.9" height="1.8"/>
	<path class="st0" d="M382.3,30.9v0.6H382v11.9h12.9V31.5h-0.3v-0.6h0.3c0,0,0.1,0,0.1,0s0-0.1,0-0.1c0,0,0,0-0.1,0h-0.3v-0.5
		c0-0.1,0-0.1-0.1-0.1s-0.1,0.1-0.1,0.1v0.5h-0.3c0,0-0.1,0-0.1,0s0,0.1,0,0.1c0,0,0,0,0.1,0h0.3v0.6h-0.6v-2.8l0,0l-1.1-2l0,0v-2.8
		h-0.3v-0.7h0.3c0,0,0.1,0,0.1,0s0-0.1,0-0.1c0,0,0,0-0.1,0h-0.3v-0.5c0-0.1,0-0.1-0.1-0.1s-0.1,0.1-0.1,0.1v0.5H392
		c0,0-0.1,0-0.1,0s0,0.1,0,0.1c0,0,0,0,0.1,0h0.3v0.7h-1.2v-6.2c-0.1-1.4-0.4-2.7-1-4c-0.9-1.9-1.5-6.4-1.5-8.1V4.1h-0.2V2.4h1
		c0.2,0,0.3-0.1,0.3-0.2S389.6,2,389.4,2h-1V0.5c0-0.2-0.1-0.4-0.2-0.4S388,0.2,388,0.5V2h-1c-0.2,0-0.3,0.1-0.3,0.2
		s0.1,0.2,0.3,0.2h1v1.7h-0.2v1.7c0,0.4,0,5.3-1.2,7.5c-0.9,1.3-1.3,2.9-1.1,4.5V24h-1v-0.7h0.3c0,0,0.1,0,0.1,0s0-0.1,0-0.1
		c0,0,0,0-0.1,0h-0.3v-0.5c0-0.1,0-0.1-0.1-0.1s-0.1,0.1-0.1,0.1v0.5H384c0,0-0.1,0-0.1,0s0,0.1,0,0.1c0,0,0,0,0.1,0h0.3v0.7h-0.3
		v2.9l-1.1,1.9l0,0v2.8h-0.5v-0.6h0.3c0,0,0.1,0,0.1,0s0-0.1,0-0.1c0,0,0,0-0.1,0h-0.3v-0.5c0-0.1,0-0.1-0.1-0.1s-0.1,0.1-0.1,0.1
		v0.5H382c0,0-0.1,0-0.1,0s0,0.1,0,0.1c0,0,0,0,0.1,0L382.3,30.9z M389.4,19.6c0.4,0,0.7,1.3,0.7,3c0,0.4,0,0.9-0.1,1.3h-1.1
		c0-0.4-0.1-0.9-0.1-1.3C388.7,20.9,389,19.6,389.4,19.6L389.4,19.6z M386.6,22.6c0-1.6,0.3-3,0.7-3s0.6,1.3,0.6,3
		c0,0.4,0,0.9-0.1,1.3h-1.2C386.6,23.5,386.6,23,386.6,22.6L386.6,22.6z M388.3,41.6c-2.3,0.1-4.3-1.7-4.5-4c-0.1-2.3,1.7-4.3,4-4.5
		c2.3-0.1,4.3,1.7,4.5,4c0,0.1,0,0.2,0,0.2C392.4,39.6,390.6,41.5,388.3,41.6C388.3,41.6,388.3,41.6,388.3,41.6L388.3,41.6z"/>
	<path class="st0" d="M516.2,32.3v-2.9c0-0.1,0-0.1,0-0.2h0.3c0.2-0.1,0.4-0.3,0.3-0.5c0-0.2-0.2-0.3-0.3-0.3h-0.2v-1.1
		c-0.1-0.9-0.3-1.9-0.6-2.8c-0.2-0.9-0.2-1.8-0.2-2.8l0,0v-2.8c0-0.1-0.1-0.1-0.1-0.1s-0.1,0.1-0.1,0.1v2.8l0,0
		c0,0.9-0.1,1.8-0.3,2.7c-0.4,1-0.6,2-0.7,3.1v0.9h-0.1c-0.2,0.1-0.4,0.3-0.3,0.5c0,0.2,0.2,0.3,0.3,0.3h0.2c0,0.1,0,0.1,0,0.2v2.9
		c-0.7,0.1-0.6,0.8-0.6,1.3v3.3h-0.6v-0.6c0-0.3-0.1-0.4-0.3-0.5v-1c0,0,0-0.1,0-0.1h0.2c0.1,0,0.2-0.1,0.2-0.1s-0.1-0.1-0.2-0.1
		h-0.2V34c0-0.3-0.2-0.7-0.4-1c-0.1-0.3-0.1-0.6-0.1-0.9l0,0v-1c0,0,0,0-0.1,0s-0.1,0-0.1,0v1l0,0c0,0.3,0,0.6-0.2,0.9
		c-0.2,0.3-0.4,0.7-0.4,1.1v0.3h-0.1c-0.1,0-0.2,0.1-0.2,0.1s0.1,0.1,0.2,0.1h0.1v1.1c-0.4,0-0.4,0.3-0.4,0.5v0.6h-0.7v-0.6
		c0-0.3-0.1-0.4-0.3-0.5v-1c0,0,0-0.1,0-0.1h0.2c0.1,0,0.2-0.1,0.2-0.1s-0.1-0.1-0.2-0.1h-0.1V34c0-0.3-0.2-0.7-0.4-1
		c-0.1-0.3-0.2-0.6-0.2-0.9l0,0v-1c0,0,0,0-0.1,0s-0.1,0-0.1,0v1l0,0c0,0.3,0,0.6-0.2,0.9c-0.2,0.3-0.4,0.7-0.4,1.1v0.3h-0.1
		c-0.1,0-0.2,0.1-0.2,0.1s0.1,0.1,0.2,0.1h0.1v1.1c-0.4,0-0.4,0.3-0.4,0.5v0.6h-0.6v-0.6c0-0.3-0.1-0.4-0.3-0.5v-1c0,0,0-0.1,0-0.1
		h0.2c0.1,0,0.2-0.1,0.2-0.1s-0.1-0.1-0.2-0.1h-0.1V34c0-0.3-0.2-0.7-0.4-1c-0.1-0.3-0.1-0.6-0.1-0.9l0,0v-1c0,0,0,0-0.1,0
		s-0.1,0-0.1,0v1l0,0c0,0.3,0,0.6-0.2,0.9c-0.2,0.3-0.4,0.7-0.4,1.1v0.3h-0.1c-0.1,0-0.2,0.1-0.2,0.1s0.1,0.1,0.2,0.1h0.1v1.1
		c-0.4,0-0.4,0.3-0.4,0.5v0.6h-0.7v-0.6c0-0.3-0.1-0.4-0.3-0.5v-1c0,0,0,0,0-0.1h0.2c0.1,0,0.2-0.1,0.2-0.1s-0.1-0.1-0.2-0.1h-0.1
		V34c0-0.3-0.2-0.7-0.4-1c-0.1-0.3-0.1-0.6-0.1-0.9l0,0v-1c0,0,0,0-0.1,0s-0.1,0-0.1,0v1l0,0c0,0.3,0,0.6-0.2,0.9
		c-0.2,0.3-0.4,0.7-0.4,1.1v0.3h-0.1c-0.1,0-0.2,0.1-0.2,0.1s0.1,0.1,0.2,0.1h0.1v1.1c-0.4,0-0.4,0.3-0.4,0.5v0.6h-0.6v-0.6
		c0-0.3-0.1-0.4-0.3-0.5v-1c0,0,0,0,0-0.1h0.2c0.1,0,0.2-0.1,0.2-0.1s-0.1-0.1-0.2-0.1h-0.1V34c0-0.3-0.2-0.7-0.4-1
		c-0.1-0.3-0.1-0.6-0.1-0.9l0,0v-1c0,0,0,0-0.1,0s-0.1,0-0.1,0v1l0,0c0,0.3,0,0.6-0.2,0.9c-0.2,0.3-0.4,0.7-0.4,1.1v0.3h-0.1
		c-0.1,0-0.2,0.1-0.2,0.1s0.1,0.1,0.2,0.1h0.1v1.1c-0.4,0-0.4,0.3-0.4,0.5v0.6h-0.5v-3.3c0-1-0.2-1.3-0.5-1.3v-2.9
		c0-0.1,0-0.1,0-0.2h0.3c0.2-0.1,0.4-0.3,0.3-0.5c0-0.2-0.2-0.3-0.3-0.3h-0.2v-1.1c-0.1-0.9-0.3-1.9-0.6-2.8
		c-0.2-0.9-0.2-1.8-0.2-2.8l0,0v-2.8c0-0.1-0.1-0.1-0.1-0.1s-0.1,0.1-0.1,0.1v2.8l0,0c0,0.9-0.1,1.8-0.3,2.7c-0.4,1-0.6,2-0.7,3.1
		v0.9h-0.1c-0.2,0.1-0.4,0.3-0.3,0.5c0,0.2,0.2,0.3,0.3,0.3h0.2c0,0.1,0,0.1,0,0.2v2.9c-0.7,0.1-0.6,0.8-0.6,1.3v6l0,0v29.9h-9.4V57
		l0,0v-2.8c0-0.5-0.1-0.6-0.3-0.7v-1.5c0,0,0-0.1,0-0.1h0.2c0.1,0,0.2-0.2,0.2-0.3c0-0.1-0.1-0.1-0.2-0.2h-0.1v-0.6
		c0-0.5-0.1-1-0.3-1.4c-0.1-0.5-0.1-0.9-0.1-1.4l0,0v-1.5c0,0,0-0.1,0-0.1c0,0,0,0,0,0c0,0-0.1,0-0.1,0.1c0,0,0,0,0,0v1.4l0,0
		c0,0.5,0,0.9-0.2,1.4c-0.2,0.5-0.3,1.1-0.3,1.6v0.5h0c-0.1,0-0.2,0.2-0.2,0.3c0,0.1,0.1,0.1,0.2,0.2h0.1v1.6
		c-0.3,0.1-0.3,0.4-0.3,0.7v1.7h-0.3v-0.3c0-0.2,0-0.2-0.2-0.2v-0.5l0,0h0.1c0.1,0,0.1,0,0.1-0.1s0-0.1-0.1-0.1h-0.1v-0.2
		c0-0.2-0.1-0.3-0.2-0.5c-0.1-0.2-0.1-0.3-0.1-0.5l0,0V53l0,0l0,0v0.5l0,0c0,0.2,0,0.3-0.1,0.5c-0.1,0.2-0.2,0.4-0.2,0.5v0.1l0,0
		c-0.1,0-0.1,0-0.1,0.1s0,0.1,0.1,0.1h0.1v0.5c-0.2,0-0.2,0.1-0.2,0.2V56h-0.3v-0.3c0-0.2,0-0.2-0.2-0.2v-0.5l0,0h0.1
		c0.1,0,0.1,0,0.1-0.1s0-0.1-0.1-0.1h-0.1v-0.2c0-0.2-0.1-0.3-0.2-0.5c-0.1-0.2-0.1-0.3-0.1-0.5l0,0V53l0,0l0,0v0.5l0,0
		c0,0.2,0,0.3-0.1,0.5c-0.1,0.2-0.2,0.4-0.2,0.5v0.1l0,0c-0.1,0-0.1,0-0.1,0.1s0,0.1,0.1,0.1h0.1v0.5c-0.2,0-0.2,0.1-0.2,0.2V56
		h-0.3v-0.3c0-0.2,0-0.2-0.2-0.2v-0.5l0,0h0.1c0.1,0,0.1,0,0.1-0.1s0-0.1-0.1-0.1h-0.1v-0.2c0-0.2-0.1-0.3-0.2-0.5
		c0-0.2-0.1-0.3-0.1-0.5l0,0v-0.5l0,0l0,0v0.5l0,0c0,0.2,0,0.3-0.1,0.5c-0.1,0.2-0.2,0.4-0.2,0.5v0.1l0,0c-0.1,0-0.1,0-0.1,0.1
		s0,0.1,0.1,0.1h0.1v0.5c-0.2,0-0.2,0.1-0.2,0.2V56h-0.3v-0.3c0-0.2,0-0.2-0.2-0.2v-0.5l0,0h-0.3c0.1,0,0.1,0,0.1-0.1s0-0.1-0.1-0.1
		l0,0v-0.2c0-0.2-0.1-0.3-0.2-0.5c-0.1-0.2-0.1-0.3-0.1-0.5l0,0v-0.5l0,0l0,0v0.5l0,0c0,0.2,0,0.3-0.1,0.5c-0.1,0.2-0.2,0.4-0.2,0.5
		v0.1l0,0c-0.1,0-0.1,0-0.1,0.1s0,0.1,0.1,0.1h0.1v0.5c-0.2,0-0.2,0.1-0.2,0.2V56h-0.3v-0.3c0-0.2,0-0.2-0.2-0.2v-0.5l0,0h0.1
		c0.1,0,0.1,0,0.1-0.1s0-0.1-0.1-0.1h-0.1v-0.2c0-0.2-0.1-0.3-0.2-0.5c-0.1-0.2-0.1-0.3-0.1-0.5l0,0v-0.5l0,0l0,0v0.5l0,0
		c0,0.2,0,0.3-0.1,0.5c-0.1,0.2-0.2,0.4-0.2,0.5v0.1l0,0c-0.1,0-0.1,0-0.1,0.1s0,0.1,0.1,0.1h0.1v0.5c-0.2,0-0.2,0.1-0.2,0.2V56
		h-0.3v-1.7c0-0.5-0.1-0.6-0.3-0.7v-1.5c0,0,0-0.1,0-0.1h0.1c0.1,0,0.2-0.2,0.2-0.3c0-0.1-0.1-0.1-0.2-0.2h-0.1v-0.6
		c0-0.5-0.1-1-0.3-1.4c-0.2-0.5-0.3-1-0.4-1.6l0,0v-1.5c0,0,0-0.1-0.1-0.1s-0.1,0-0.1,0.1c0,0,0,0,0,0v1.5l0,0c0,0.5,0,0.9-0.1,1.4
		c-0.2,0.5-0.3,1.1-0.4,1.6v0.5h0c-0.1,0-0.2,0.2-0.2,0.3c0,0.1,0.1,0.1,0.2,0.2h0.1c0,0,0,0.1,0,0.1v1.5c-0.3,0.1-0.3,0.4-0.3,0.7
		v3.1l0,0v9h-5v-4.3l0,0v-1.5c0-0.3,0-0.4-0.1-0.4v-0.8c0,0,0,0,0-0.1h0.1c0,0,0.1,0,0.1-0.1s0-0.1-0.1-0.1l0,0v-0.3
		c0-0.3-0.1-0.5-0.2-0.8c0-0.3-0.1-0.5,0-0.8l0,0v-0.8l0,0l0,0v0.8l0,0c0,0.3,0,0.5-0.1,0.8c-0.1,0.3-0.2,0.6-0.2,0.9v0.3l0,0
		c0,0-0.1,0-0.1,0.1s0,0.1,0.1,0.1h0.1v0.9c-0.2,0-0.2,0.2-0.2,0.4v0.9h-0.1v-0.2c0-0.1,0-0.1-0.1-0.1v-0.3l0,0l0,0v-0.1
		c0-0.1,0-0.2-0.1-0.3c0-0.1,0-0.2,0-0.3l0,0V60l0,0v0.3l0,0c0,0.1,0,0.2,0,0.3c-0.1,0.1-0.1,0.2-0.1,0.3v0.1l0,0h-0.1
		c0,0,0,0,0.1,0l0,0v0.3c-0.1,0-0.1,0.1-0.1,0.1v0.2h-0.2v-0.2c0-0.1,0-0.1-0.1-0.1v-0.3l0,0h0.1c0,0,0,0-0.1,0l0,0v-0.1
		c0-0.1,0-0.2-0.1-0.3c0-0.1,0-0.2,0-0.3l0,0V60l0,0v0.3l0,0c0,0.1,0,0.2,0,0.3c-0.1,0.1-0.1,0.2-0.1,0.3v0.1l0,0h-0.1
		c0,0,0,0,0.1,0l0,0v0.3c-0.1,0-0.1,0.1-0.1,0.1v0.2H472v-0.2c0-0.1,0-0.1-0.1-0.1v-0.3l0,0h0.1c0,0,0,0-0.1,0l0,0v-0.1
		c0-0.1,0-0.2-0.1-0.3c0-0.1,0-0.2,0-0.3l0,0V60l0,0v0.3l0,0c0,0.1,0,0.2,0,0.3c-0.1,0.1-0.1,0.2-0.1,0.3v0.1l0,0l0,0v0.3
		c-0.1,0-0.1,0.1-0.1,0.1v0.2h-0.2v-0.2c0-0.1,0-0.1-0.1-0.1v-0.3l0,0h0.1c0,0,0,0-0.1,0l0,0v-0.1c0-0.1,0-0.2-0.1-0.3
		c0-0.1,0-0.2,0-0.3l0,0V60l0,0v0.3l0,0c0,0.1,0,0.2,0,0.3c-0.1,0.1-0.1,0.2-0.1,0.3v0.1l0,0h-0.1c0,0,0,0,0.1,0l0,0v0.3
		c-0.1,0-0.1,0.1-0.1,0.1v0.2h-0.2v-0.2c0-0.1,0-0.1-0.1-0.1v-0.3l0,0l0,0v-0.1c0-0.1,0-0.2-0.1-0.3c0-0.1,0-0.2,0-0.3l0,0v-0.3l0,0
		v0.3l0,0c0,0.1,0,0.2,0,0.3c-0.1,0.1-0.1,0.2-0.1,0.3v0.1l0,0h-0.1c0,0,0,0,0.1,0l0,0v0.3c-0.1,0-0.1,0.1-0.1,0.1v0.2h-0.1v-0.9
		c0-0.3,0-0.4-0.1-0.4v-0.8c0,0,0,0,0-0.1h0.1c0,0,0.1,0,0.1-0.1s0-0.1-0.1-0.1h-0.1v-0.3c0-0.3-0.1-0.5-0.2-0.8
		c0-0.3-0.1-0.5,0-0.8l0,0v-0.8v0.8l0,0c0,0.3,0,0.5-0.1,0.8c-0.1,0.3-0.2,0.6-0.2,0.9v0.3l0,0c0,0-0.1,0-0.1,0.1s0,0.1,0.1,0.1h0.1
		v0.9c-0.2,0-0.2,0.2-0.2,0.4v1.7l0,0v1.2h-4.5v-1.4l0,0v-1.5c0-0.3,0-0.4-0.1-0.4v-0.8c0,0,0,0,0-0.1h0.1c0,0,0.1,0,0.1-0.1
		s0-0.1-0.1-0.1H465v-0.3c0-0.3-0.1-0.5-0.2-0.8c0-0.3-0.1-0.5,0-0.8l0,0v-0.8v0.8l0,0c0,0.3,0,0.5-0.1,0.8
		c-0.1,0.3-0.2,0.6-0.2,0.9v0.3l0,0c0,0-0.1,0-0.1,0.1s0,0.1,0.1,0.1h-0.7v0.9c-0.2,0-0.2,0.2-0.2,0.4v0.9h-0.1v-0.2
		c0-0.1,0-0.1-0.1-0.1v-0.3l0,0h0.1c0,0,0,0-0.1,0l0,0v-0.1c0-0.1,0-0.2-0.1-0.3c0-0.1,0-0.2,0-0.3l0,0V60l0,0v0.3l0,0
		c0,0.1,0,0.2,0,0.3c-0.1,0.1-0.1,0.2-0.1,0.3v0.1l0,0h-0.1c0,0,0,0,0.1,0l0,0v0.3c-0.1,0-0.1,0.1-0.1,0.1v0.2h-0.3v-0.2
		c0-0.1,0-0.1-0.1-0.1v-0.3l0,0l0,0v-0.1c0-0.1,0-0.2-0.1-0.3c0-0.1,0-0.2,0-0.3l0,0V60l0,0v0.3l0,0c0,0.1,0,0.2,0,0.3
		c-0.1,0.1-0.1,0.2-0.1,0.3v0.1l0,0h-0.1c0,0,0,0,0.1,0l0,0v0.3c-0.1,0-0.1,0.1-0.1,0.1v0.2h-0.2v-0.2c0-0.1,0-0.1-0.1-0.1v-0.3l0,0
		h0.1c0,0,0,0-0.1,0l0,0v-0.1c0-0.1,0-0.2-0.1-0.3c0-0.1,0-0.2,0-0.3l0,0V60l0,0v0.3l0,0c0,0.1,0,0.2,0,0.3
		c-0.1,0.1-0.1,0.2-0.1,0.3v0.1l0,0h-0.1c0,0,0,0,0.1,0l0,0v0.3c-0.1,0-0.1,0.1-0.1,0.1v0.2h-0.2v-0.2c0-0.1,0-0.1-0.1-0.1v-0.3l0,0
		h0l0,0v-0.1c0-0.1,0-0.2-0.1-0.3c0-0.1,0-0.2,0-0.3l0,0V60l0,0v0.3l0,0c0,0.1,0,0.2,0,0.3c-0.1,0.1-0.1,0.2-0.1,0.3v0.1l0,0h-0.1
		c0,0,0,0,0.1,0l0,0v0.3c-0.1,0-0.1,0.1-0.1,0.1v0.2h-0.5v-0.2c0-0.1,0-0.1-0.1-0.1v-0.3l0,0h0.1c0,0,0,0-0.1,0l0,0v-0.1
		c0-0.1,0-0.2-0.1-0.3c0-0.1,0-0.2,0-0.3l0,0v-0.3l0,0v0.3l0,0c0,0.1,0,0.2,0,0.3c-0.1,0.1-0.1,0.2-0.1,0.3v0.1l0,0h-0.1
		c0,0,0,0,0.1,0l0,0v0.3c-0.1,0-0.1,0.1-0.1,0.1v0.2h-0.1v-0.9c0-0.3,0-0.4-0.1-0.4v-0.8c0,0,0,0,0-0.1h0.1c0,0,0.1,0,0.1-0.1
		s0-0.1-0.1-0.1h-0.1v-0.3c0-0.3-0.1-0.5-0.2-0.8c0-0.3-0.1-0.5,0-0.8l0,0v-0.8l0,0l0,0v0.8l0,0c0,0.3,0,0.5-0.1,0.8
		c-0.1,0.3-0.2,0.6-0.2,0.9v0.3l0,0c0,0-0.1,0-0.1,0.1s0,0.1,0.1,0.1h0.1v0.9c-0.2,0-0.2,0.2-0.2,0.4v1.7l0,0v4.1h-1.8v-5.2l0,0v-2
		c0-0.4-0.1-0.5-0.2-0.5v-1.1c0,0,0-0.1,0-0.1h0.1c0.1,0,0.1-0.1,0.1-0.2s0-0.2-0.1-0.2h-0.1v-0.4c0-0.3-0.1-0.7-0.2-1
		c-0.1-0.3-0.1-0.7-0.1-1l0,0v-1l0,0l0,0v1l0,0c0,0.3,0,0.7-0.1,1c-0.1,0.4-0.2,0.8-0.2,1.1v0.2l0,0c-0.1,0-0.1,0.1-0.1,0.2
		s0,0.2,0.1,0.2h0.1c0,0,0,0,0,0.1v1.1c-0.2,0.1-0.2,0.3-0.2,0.5v1.2h-0.2v-0.2c0-0.1,0-0.2-0.1-0.2v-0.4h0.1c0,0,0.1,0,0.1-0.1
		s0,0-0.1,0l0,0v-0.1c0-0.1-0.1-0.2-0.1-0.4c0-0.1,0-0.2,0-0.4l0,0v-0.4l0,0l0,0v0.4l0,0c0,0.1,0,0.2-0.1,0.3
		c-0.1,0.1-0.1,0.3-0.1,0.4v0.1l0,0c0,0-0.1,0-0.1,0c0,0,0,0.1,0,0.1c0,0,0,0,0,0l0,0v0.4c-0.1,0-0.1,0.1-0.1,0.2v0.2H456v-0.2
		c0-0.1,0-0.2-0.1-0.2v-0.4l0,0h0.1c0,0,0.1,0,0.1-0.1c0,0,0,0-0.1,0l0,0v-0.1c0-0.1-0.1-0.2-0.1-0.4c0-0.1,0-0.2,0-0.4l0,0v-0.4
		l0,0l0,0v0.4l0,0c0,0.1,0,0.2-0.1,0.3c-0.1,0.1-0.1,0.3-0.1,0.4v0.1l0,0c0,0-0.1,0-0.1,0s0,0.1,0.1,0.1l0,0v0.4
		c-0.1,0-0.1,0.1-0.1,0.2v0.2h-0.2v-0.3c0-0.1,0-0.2-0.1-0.2v-0.4h-0.3c0,0,0.1,0,0.1-0.1s0,0-0.1,0l0,0v-0.1c0-0.1-0.1-0.2-0.1-0.4
		c0-0.1,0-0.2,0-0.4l0,0v-0.4l0,0l0,0v0.4l0,0c0,0.1,0,0.2-0.1,0.3c-0.1,0.1-0.1,0.3-0.1,0.4v0.1l0,0c0,0-0.1,0-0.1,0
		c0,0,0,0.1,0.1,0.1l0,0v0.4c-0.1,0-0.1,0.1-0.1,0.2v0.2h-0.2v-0.2c0-0.1,0-0.2-0.1-0.2v-0.4l0,0h0.1c0,0,0.1,0,0.1,0c0,0,0,0,0,0
		c0,0,0,0-0.1,0l0,0v-0.1c0-0.1-0.1-0.2-0.1-0.4c0-0.1,0-0.2,0-0.4l0,0v-0.4l0,0l0,0v0.4l0,0c0,0.1,0,0.2-0.1,0.3
		c-0.1,0.1-0.1,0.3-0.1,0.4v0.1l0,0c0,0-0.1,0-0.1,0c0,0,0,0.1,0.1,0.1l0,0v0.4c-0.1,0-0.1,0.1-0.1,0.2v0.2h-0.2v-0.3
		c0-0.1,0-0.2-0.1-0.2v-0.4l0,0h0.1c0,0,0.1,0,0.1-0.1s0,0-0.1,0l0,0v-0.1c0-0.1-0.1-0.2-0.1-0.4c0-0.1,0-0.2,0-0.4l0,0v-0.4l0,0
		l0,0v0.4l0,0c0,0.1,0,0.2-0.1,0.3c-0.1,0.1-0.1,0.3-0.1,0.4v0.1l0,0c0,0-0.1,0-0.1,0c0,0,0,0.1,0.1,0.1l0,0v0.4
		c-0.1,0-0.1,0.1-0.1,0.2v0.2h-0.2v-1.3c0-0.4-0.1-0.5-0.2-0.5v-1.1c0,0,0-0.1,0-0.1h0.1c0.1,0,0.1-0.1,0.1-0.2s0-0.2-0.1-0.2h-0.1
		v-0.4c0-0.3-0.1-0.7-0.2-1c-0.1-0.3-0.1-0.7-0.1-1l0,0v-1l0,0l0,0v1l0,0c0,0.3,0,0.7-0.1,1c-0.1,0.4-0.2,0.8-0.2,1.1v0.2l0,0
		c-0.1,0-0.1,0.1-0.1,0.2s0,0.2,0.1,0.2h0.1v1.2c-0.2,0.1-0.2,0.3-0.2,0.5v2.2l0,0v5h-2.9v-0.7c0-0.3-0.1-0.3-0.3-0.4v-0.8
		c0,0,0,0,0-0.1h0.2c0.1,0,0.2,0,0.2-0.1s-0.1-0.1-0.2-0.1h-0.1v-0.3c0-0.3-0.2-0.5-0.3-0.8c-0.1-0.2-0.1-0.5-0.1-0.8l0,0v-0.8
		c0,0,0,0-0.1,0s-0.1,0-0.1,0v0.8l0,0c0,0.3,0,0.5-0.1,0.7c-0.2,0.2-0.3,0.5-0.4,0.8v0.2h0c-0.1,0-0.2,0-0.2,0.1s0.1,0.1,0.2,0.1
		h0.1v0.9c-0.4,0-0.3,0.2-0.3,0.4v0.7h-2.6v-0.7c0-0.3-0.1-0.3-0.3-0.4v-0.8c0,0,0,0,0-0.1h0.2c0.1,0,0.2,0,0.2-0.1
		s-0.1-0.1-0.2-0.1h-0.1v-0.3c0-0.3-0.2-0.5-0.3-0.8c-0.1-0.2-0.1-0.5-0.1-0.8l0,0v-0.8c0,0,0,0-0.1,0s-0.1,0-0.1,0v0.8l0,0
		c0,0.3,0,0.5-0.1,0.7c-0.2,0.2-0.3,0.5-0.4,0.8v0.2h0c-0.1,0-0.2,0-0.2,0.1s0.1,0.1,0.2,0.1h0.1v0.9c-0.4,0-0.3,0.2-0.3,0.4v0.7
		h-2.4v-0.7c0-0.3-0.1-0.3-0.3-0.4v-0.8c0,0,0,0,0-0.1h0.2c0.1,0,0.2,0,0.2-0.1s-0.1-0.1-0.2-0.1h-0.1v-0.3c0-0.3-0.2-0.5-0.3-0.8
		c-0.1-0.2-0.1-0.5-0.1-0.8l0,0v-0.8c0,0,0,0-0.1,0s-0.1,0-0.1,0v0.8l0,0c0,0.3,0,0.5-0.1,0.7c-0.2,0.2-0.3,0.5-0.4,0.8v0.2h-0.1
		c-0.1,0-0.2,0-0.2,0.1s0.1,0.1,0.2,0.1h0.1v0.9c-0.4,0-0.3,0.2-0.3,0.4v0.7h-3.8v-0.8c0-0.4-0.1-0.5-0.3-0.6v-1.2c0,0,0-0.1,0-0.1
		h0.2c0.1,0,0.2-0.1,0.2-0.2c0-0.1-0.1-0.2-0.2-0.2c0,0,0,0,0,0h-0.1v-0.5c0-0.4-0.2-0.8-0.4-1.1c-0.1-0.4-0.1-0.8-0.1-1.1l0,0v-1.2
		c0,0-0.1-0.1-0.1,0c0,0,0,0,0,0v1.2l0,0c0,0.4,0,0.8-0.2,1.1c-0.2,0.4-0.3,0.8-0.4,1.3v0.4h-0.1c-0.1,0-0.2,0.1-0.2,0.2
		c0,0.1,0.1,0.2,0.2,0.2c0,0,0,0,0,0h0.1v1.3c-0.4,0.1-0.4,0.4-0.4,0.5v0.8h-0.5V55.8l0,0v-3c0-0.5-0.1-0.7-0.4-0.7v-1.6
		c0,0,0-0.1,0-0.1h0.2c0.1,0,0.2-0.1,0.2-0.2c0-0.1-0.1-0.2-0.2-0.2h-0.1v-0.6c0-0.5-0.2-1-0.4-1.5c-0.1-0.5-0.1-1-0.1-1.5l0,0v-1.5
		c0,0,0-0.1-0.1-0.1s-0.1,0-0.1,0.1v1.5l0,0c0,0.5,0,1-0.2,1.5c-0.2,0.5-0.4,1.1-0.4,1.7v0.5h-0.1c-0.1,0-0.2,0.1-0.2,0.2
		c0,0.1,0.1,0.2,0.2,0.2h0.1v1.7c-0.4,0.1-0.4,0.5-0.4,0.7v1.8h-0.4v-0.4c0-0.2-0.1-0.2-0.2-0.2v-0.5l0,0h0.1c0.1,0,0.1,0,0.1-0.1
		s-0.1-0.1-0.1-0.1h-0.1v-0.2c0-0.2-0.1-0.4-0.2-0.5c-0.1-0.2-0.1-0.3-0.1-0.5l0,0v-0.5l0,0l0,0v0.5l0,0c0,0.2,0,0.3-0.1,0.5
		c-0.1,0.2-0.2,0.4-0.3,0.6v0.2l0,0c-0.1,0-0.1,0-0.1,0.1s0.1,0.1,0.1,0.1h-0.1V54c-0.3,0-0.2,0.2-0.2,0.2v0.4h-0.4v-0.4
		c0-0.2-0.1-0.2-0.2-0.2v-0.5l0,0h0.1c0.1,0,0.1,0,0.1-0.1s-0.1-0.1-0.1-0.1H429v-0.2c0-0.2-0.1-0.4-0.2-0.5
		c-0.1-0.2-0.1-0.3-0.1-0.5l0,0v-0.5l0,0l0,0v0.5l0,0c0,0.2,0,0.3-0.1,0.5c-0.1,0.2-0.2,0.4-0.3,0.6v0.2l0,0c-0.1,0-0.1,0-0.1,0.1
		s0.1,0.1,0.1,0.1h0.1V54c-0.3,0-0.2,0.2-0.2,0.2v0.4h-0.4v-0.4c0-0.2-0.1-0.2-0.2-0.2v-0.5l0,0h0.1c0.1,0,0.1,0,0.1-0.1
		s-0.1-0.1-0.1-0.1h-0.1v-0.2c0-0.2-0.1-0.4-0.2-0.5c-0.1-0.2-0.1-0.3-0.1-0.5l0,0v-0.5l0,0l0,0v0.5l0,0c0,0.2,0,0.3-0.1,0.5
		c-0.1,0.2-0.2,0.4-0.3,0.6v0.2l0,0c-0.1,0-0.1,0-0.1,0.1s0.1,0.1,0.1,0.1h0.1V54c-0.3,0-0.2,0.2-0.2,0.2v0.4h-0.4v-0.4
		c0-0.2-0.1-0.2-0.2-0.2v-0.5l0,0h-0.2c0.1,0,0.1,0,0.1-0.1s-0.1-0.1-0.1-0.1l0,0v-0.2c0-0.2-0.1-0.4-0.2-0.5
		c-0.1-0.2-0.1-0.3-0.1-0.5l0,0v-0.5l0,0l0,0v0.5l0,0c0,0.2,0,0.3-0.1,0.5c-0.1,0.2-0.2,0.4-0.3,0.6v0.2l0,0c-0.1,0-0.1,0-0.1,0.1
		s0.1,0.1,0.1,0.1h0.1V54c-0.3,0-0.2,0.2-0.2,0.2v0.4h-0.4v-0.4c0-0.2-0.1-0.2-0.2-0.2v-0.5l0,0h0.1c0.1,0,0.1,0,0.1-0.1
		s-0.1-0.1-0.1-0.1h-0.1v-0.2c0-0.2-0.1-0.4-0.2-0.5c-0.1-0.2-0.1-0.3-0.1-0.5l0,0v-0.5l0,0l0,0v0.5l0,0c0,0.2,0,0.3-0.1,0.5
		c-0.1,0.2-0.2,0.4-0.3,0.6v0.2l0,0c-0.1,0-0.1,0-0.1,0.1s0.1,0.1,0.1,0.1h0.1V54c-0.3,0-0.2,0.2-0.2,0.2v0.4h-0.7v-1.8
		c0-0.5-0.1-0.7-0.4-0.7v-1.6c0,0,0-0.1,0-0.1h0.2c0.1,0,0.2-0.1,0.2-0.2c0-0.1-0.1-0.2-0.2-0.2h-0.1v-0.6c0-0.5-0.2-1-0.4-1.5
		c-0.1-0.5-0.1-1-0.1-1.5l0,0v-1.5c0,0,0-0.1-0.1-0.1l0,0c0,0-0.1,0-0.1,0.1l0,0v1.5l0,0c0,0.5,0,1-0.2,1.5
		c-0.2,0.5-0.4,1.1-0.4,1.7V50h-0.1c-0.1,0-0.2,0.1-0.2,0.2c0,0.1,0.1,0.2,0.2,0.2l0,0h0.1c0,0,0,0.1,0,0.1v1.6
		c-0.4,0.1-0.4,0.5-0.4,0.7v3.2l0,0v6.2h-4.6v-6.5l0,0v-3c0-0.5-0.1-0.7-0.4-0.7v-1.6c0,0,0-0.1,0-0.1h0.2c0.1,0,0.2-0.1,0.2-0.2
		c0-0.1-0.1-0.2-0.2-0.2h-0.1v-0.6c0-0.5-0.2-1-0.4-1.5c-0.1-0.5-0.1-1-0.1-1.5l0,0v-1.5c0,0,0-0.1-0.1-0.1c0,0-0.1,0-0.1,0.1v1.5
		l0,0c0,0.5,0,1-0.2,1.5c-0.2,0.5-0.4,1.1-0.4,1.7V50h-0.1c-0.1,0-0.2,0.1-0.2,0.2c0,0.1,0.1,0.2,0.2,0.2h0.2c0,0,0,0.1,0,0.1v1.6
		c-0.4,0.1-0.4,0.5-0.4,0.7v1.8h-0.4v-0.4c0-0.2-0.1-0.2-0.2-0.2v-0.5l0,0h0.1c0.1,0,0.1,0,0.1-0.1s-0.1-0.1-0.1-0.1h-0.1v-0.2
		c0-0.2-0.1-0.4-0.2-0.5c-0.1-0.2-0.1-0.3-0.1-0.5l0,0v-0.5l0,0l0,0v0.5l0,0c0,0.2,0,0.3-0.1,0.5c-0.1,0.2-0.2,0.4-0.3,0.6v0.2l0,0
		c-0.1,0-0.1,0-0.1,0.1s0.1,0.1,0.1,0.1h0.1V54c-0.3,0-0.2,0.2-0.2,0.2v0.4h-0.4v-0.4c0-0.2-0.1-0.2-0.2-0.2v-0.5l0,0h0.1
		c0.1,0,0.1,0,0.1-0.1s-0.1-0.1-0.1-0.1h-0.1v-0.2c0-0.2-0.1-0.4-0.2-0.5c-0.1-0.2-0.1-0.3-0.1-0.5l0,0v-0.5l0,0l0,0v0.5l0,0
		c0,0.2,0,0.3-0.1,0.5c-0.1,0.2-0.2,0.4-0.3,0.6v0.2l0,0c-0.1,0-0.1,0-0.1,0.1s0.1,0.1,0.1,0.1h0.1V54c-0.3,0-0.2,0.2-0.2,0.2v0.4
		h-0.4v-0.4c0-0.2-0.1-0.2-0.2-0.2v-0.5l0,0h-0.1c0.1,0,0.1,0,0.1-0.1s-0.1-0.1-0.1-0.1h-0.1v-0.2c0-0.2-0.1-0.4-0.2-0.5
		c-0.1-0.2-0.1-0.3-0.1-0.5l0,0v-0.5l0,0l0,0v0.5l0,0c0,0.2,0,0.3-0.1,0.5c-0.1,0.2-0.2,0.4-0.3,0.6v0.2l0,0c-0.1,0-0.1,0-0.1,0.1
		s0.1,0.1,0.1,0.1h0.1V54c-0.3,0-0.2,0.2-0.2,0.2v0.4h-0.4v-0.4c0-0.2-0.1-0.2-0.2-0.2v-0.5l0,0h0.1c0.1,0,0.1,0,0.1-0.1
		s-0.1-0.1-0.1-0.1h-0.1v-0.2c0-0.2-0.1-0.4-0.2-0.5c-0.1-0.2-0.1-0.3-0.1-0.5l0,0v-0.5l0,0l0,0v0.5l0,0c0,0.2,0,0.3-0.1,0.5
		c-0.1,0.2-0.2,0.4-0.3,0.6v0.2l0,0c-0.1,0-0.1,0-0.1,0.1s0.1,0.1,0.1,0.1h0.1V54c-0.3,0-0.2,0.2-0.2,0.2v0.4h-0.4v-0.4
		c0-0.2-0.1-0.2-0.2-0.2v-0.5l0,0h0.1c0.1,0,0.1,0,0.1-0.1s-0.1-0.1-0.1-0.1h-0.1v-0.2c0-0.2-0.1-0.4-0.2-0.5
		c-0.1-0.2-0.1-0.3-0.1-0.5l0,0v-0.5l0,0l0,0v0.5l0,0c0,0.2,0,0.3-0.1,0.5c-0.1,0.2-0.2,0.4-0.3,0.6v0.2l0,0c-0.1,0-0.1,0-0.1,0.1
		s0.1,0.1,0.1,0.1h0.1V54c-0.3,0-0.2,0.2-0.2,0.2v0.4h-0.4v-1.8c0-0.5-0.1-0.7-0.4-0.7v-1.6c0,0,0-0.1,0-0.1h0.2
		c0.1,0,0.2-0.1,0.2-0.2c0-0.1-0.1-0.2-0.2-0.2h-0.6v-0.6c0-0.5-0.2-1-0.4-1.5c-0.1-0.5-0.1-1-0.1-1.5l0,0v-1.5c0,0,0-0.1-0.1-0.1
		c0,0-0.1,0-0.1,0.1v1.5l0,0c0,0.5,0,1-0.2,1.5c-0.2,0.5-0.4,1.1-0.4,1.7V50h-0.1c-0.1,0-0.2,0.1-0.2,0.2c0,0.1,0.1,0.2,0.2,0.2l0,0
		h0.1v1.7c-0.4,0.1-0.4,0.5-0.4,0.7v3.2l0,0v13.3h-9.9V46.1h-11.7v48.2h134V82.9l0,0V39.1h0.1v-5.5
		C516.7,32.6,516.6,32.3,516.2,32.3z"/>
</g>
<g id="st_pauls">
	<polygon class="st0" points="279.4,65.8 279.4,63 277.8,63 277.8,59.5 250,59.5 250,63 248.1,63 248.1,65.8 244.2,65.8 244.2,94.8 
		283.4,94.8 283.4,65.8 	"/>
	<path class="st0" d="M277.7,58.1h-1v-6.8h1v-1H250v1h0.9v6.8H250v1h27.8L277.7,58.1z M275.7,58.1h-1.4v-6.8h1.4V58.1z M257.5,51.3
		h1.7v6.8h-1.7V51.3z M256.5,58.1h-1.8v-6.8h1.8V58.1z M261.7,51.3h1.4v6.8h-1.5L261.7,51.3z M264.2,51.3h1.7v6.8h-1.8L264.2,51.3z
		 M267,51.3h2v6.8h-2V51.3z M271.4,51.3h2v6.8h-2V51.3z M252,51.3h1.8v6.8h-1.9L252,51.3z"/>
	<path class="st0" d="M277.7,47.9H274v-3h0.9v-0.8h-0.5c-0.3-4.7-3.6-8.7-8.1-9.9v-1.7h0.5v-0.7h-1.3v-4.6h0.5v-0.7h-1.2v-2.1h0.2
		c0-0.6-0.5-1.2-1-1.4v-2.4c0.3-0.3,0.3-0.7,0.1-1s-0.7-0.3-1-0.1s-0.3,0.7-0.1,1c0,0,0.1,0.1,0.1,0.1v2.3c-0.7,0.2-1.1,0.7-1.2,1.4
		h0.3v2.1h-1.4v0.7h0.5v4.6h-1.4v0.7h0.6v1.7c-4.5,1.3-7.8,5.2-8.1,9.9h-0.3v0.8h0.8v3H250v2h27.8L277.7,47.9z"/>
</g>
<g id="city">
	<path class="st0" d="M247,56.1h-9.5V34.4h-3.8V20.9h-6.2v13.6h-2.6V22.6h-4.4v-5.3h-9.3v11.8h-4.4v46.8l-9.6-0.2v-21
		c0.3-4.5-0.2-9-1.4-13.4c-2-6.8-6.8-12.8-8-12.8s-5.8,5.8-7.7,12.3c-1.3,4.4-1.9,8.9-1.7,13.5v16.3h-11.5V54.6H152v0.2l-4.7,2.2V88
		l99.7-1.1V56.1z"/>
</g>
</svg>
